<svg width="22" height="21" viewBox="0 0 22 21" fill="none" xmlns="http://www.w3.org/2000/svg">
<path d="M18.7815 15.8085C18.2262 14.8529 17.4011 12.1579 17.4011 8.65246C17.4011 6.6229 16.5948 4.67647 15.1597 3.24135C13.7246 1.80624 11.7782 1 9.74861 1C7.71905 1 5.77262 1.80624 4.3375 3.24135C2.90239 4.67647 2.09615 6.6229 2.09615 8.65246C2.09615 12.1589 1.27007 14.8529 0.714778 15.8085C0.592942 16.0171 0.528293 16.2542 0.527354 16.4958C0.526415 16.7374 0.58922 16.975 0.70943 17.1845C0.82964 17.3941 1.003 17.5683 1.21202 17.6894C1.42105 17.8106 1.65833 17.8745 1.89993 17.8747H6.06758C6.21055 18.7473 6.65905 19.5407 7.33298 20.1132C8.0069 20.6857 8.86238 21 9.74665 21C10.6309 21 11.4864 20.6857 12.1603 20.1132C12.8342 19.5407 13.2827 18.7473 13.4257 17.8747H17.5973C17.8387 17.8742 18.0758 17.81 18.2845 17.6887C18.4933 17.5674 18.6663 17.3932 18.7863 17.1837C18.9063 16.9742 18.9689 16.7368 18.9679 16.4953C18.9669 16.2539 18.9022 16.017 18.7805 15.8085H18.7815ZM9.74861 19.8368C9.17458 19.8367 8.6174 19.6429 8.16715 19.2868C7.7169 18.9307 7.39991 18.4332 7.26745 17.8747H12.2298C12.0973 18.4332 11.7803 18.9307 11.3301 19.2868C10.8798 19.6429 10.3226 19.8367 9.74861 19.8368ZM17.7651 16.5993C17.7489 16.6293 17.7248 16.6543 17.6954 16.6716C17.666 16.6889 17.6324 16.6978 17.5983 16.6974H1.89993C1.86581 16.6978 1.83222 16.6889 1.80281 16.6716C1.7734 16.6543 1.7493 16.6293 1.73314 16.5993C1.71592 16.5694 1.70686 16.5356 1.70686 16.5011C1.70686 16.4667 1.71592 16.4329 1.73314 16.403C2.47583 15.1276 3.27345 12.154 3.27345 8.65246C3.27345 6.93514 3.95565 5.28816 5.16998 4.07383C6.38431 2.8595 8.03129 2.1773 9.74861 2.1773C11.4659 2.1773 13.1129 2.8595 14.3272 4.07383C15.5416 5.28816 16.2238 6.93514 16.2238 8.65246C16.2238 12.153 17.0224 15.1227 17.7651 16.403C17.7823 16.4329 17.7913 16.4667 17.7913 16.5011C17.7913 16.5356 17.7823 16.5694 17.7651 16.5993Z" fill="#262626"/>
<circle cx="16.1136" cy="5.11364" r="5.11364" fill="#30FA15"/>
</svg>
