<svg width="46" height="42" viewBox="0 0 46 42" fill="none" xmlns="http://www.w3.org/2000/svg">
<path d="M44.7214 17.3872C44.5014 17.977 44.0355 19.0752 43.1608 20.5898C42.9373 20.9744 42.6868 21.3901 42.4099 21.8282C40.4301 24.9346 36.9757 29.3221 31.0763 34.4523L22.9988 41.4729L14.9226 34.4523C9.53983 29.7723 6.19439 25.7099 4.14962 22.6752C3.85487 22.2378 3.58652 21.8232 3.34458 21.4314C2.13735 19.476 1.53814 18.0799 1.27746 17.3845C-1.09501 11.0193 2.1448 3.9317 8.5127 1.55787C11.0968 0.594926 13.9294 0.527214 16.5565 1.36558C19.1837 2.20394 21.4535 3.89986 23.0021 6.18162C24.551 3.90004 26.8208 2.20427 29.4479 1.36593C32.075 0.527582 34.9075 0.59517 37.4916 1.55787C43.8561 3.9317 47.0952 11.0193 44.7214 17.3872Z" fill="#CD4746"/>
<path d="M37.4861 1.55774C34.9022 0.597117 32.0709 0.530595 29.4448 1.36881C26.8187 2.20703 24.5495 3.90157 23 6.1815C21.4525 3.89927 19.1834 2.20289 16.5566 1.36444C13.9298 0.525989 11.0975 0.594063 8.51395 1.55774C2.14604 3.93157 -1.09377 11.0192 1.28074 17.3871C1.54141 18.0825 2.13995 19.4786 3.34447 21.4313C3.58596 21.8217 3.85385 22.2354 4.14816 22.6724C6.19631 25.7104 9.54107 29.7722 14.9225 34.4522L23 41.4728L31.0782 34.4522C36.9769 29.3226 40.4313 24.9345 42.4118 21.8281C42.6907 21.3907 42.9392 20.975 43.1627 20.5897C44.0375 19.0758 44.5033 17.9769 44.7199 17.3871C47.0972 11.0192 43.8573 3.93157 37.4861 1.55774ZM30.2617 33.5158L23 39.8302L15.7384 33.5151C11.5466 29.8738 8.15916 26.2297 5.65668 22.6751H23.9046L26.0462 14.4391L28.938 32.3817L32.473 17.9389L34.1738 26.3394L35.9423 21.803L40.9276 21.8172C39.0697 24.6021 35.7893 28.7099 30.2617 33.5151V33.5158ZM43.5628 16.9531C43.3766 17.446 42.9419 18.4948 42.0915 19.9661C41.9615 20.1875 41.8403 20.3913 41.7225 20.585L35.0994 20.5646L34.5536 21.9581L32.5847 12.2576L29.1898 26.1377L26.3285 8.40299L22.9458 21.4313H4.81643C4.67221 21.2092 4.53274 20.9905 4.40206 20.7793C3.24155 18.899 2.67348 17.5706 2.43854 16.9504C0.312516 11.2366 3.22936 4.85308 8.94524 2.72164C11.2675 1.85414 13.8138 1.79192 16.1757 2.54494C18.5375 3.29797 20.5779 4.82259 21.9695 6.87415L23 8.39148L24.0271 6.87415C25.5444 4.6289 27.8327 3.01829 30.4582 2.34759C33.0838 1.67689 35.8642 1.99271 38.2724 3.23518C40.6806 4.47765 42.5494 6.56044 43.5245 9.08879C44.4995 11.6171 44.5132 14.4154 43.5628 16.9531Z" fill="white"/>
</svg>
