<svg width="14" height="15" viewBox="0 0 14 15" fill="none" xmlns="http://www.w3.org/2000/svg">
<path d="M13.6282 3.82589C13.4975 3.8936 13.3452 3.90662 13.2048 3.8621C13.0645 3.81757 12.9476 3.71914 12.8798 3.58844C12.3496 2.54108 11.5471 1.65585 10.5566 1.02577C10.4949 0.986839 10.4415 0.93613 10.3993 0.876539C10.3572 0.816948 10.3272 0.749643 10.3111 0.678466C10.295 0.607289 10.293 0.533634 10.3054 0.461707C10.3177 0.38978 10.3441 0.320989 10.3831 0.259262C10.422 0.197535 10.4727 0.144081 10.5323 0.101952C10.5919 0.0598226 10.6592 0.029843 10.7304 0.013725C10.8015 -0.00239294 10.8752 -0.00433375 10.9471 0.00801344C11.019 0.0203606 11.0878 0.046754 11.1496 0.0856866C12.3039 0.824796 13.2412 1.85724 13.8657 3.07744C13.9334 3.20818 13.9464 3.36047 13.9019 3.50082C13.8574 3.64116 13.7589 3.75809 13.6282 3.82589ZM0.555209 3.88838C0.656968 3.88834 0.75676 3.86034 0.843692 3.80745C0.930624 3.75455 1.00135 3.6788 1.04816 3.58844C1.57834 2.54108 2.38082 1.65585 3.3713 1.02577C3.49596 0.947144 3.58428 0.822214 3.61684 0.678466C3.64939 0.534717 3.6235 0.383925 3.54487 0.259262C3.46625 0.134599 3.34132 0.0462768 3.19757 0.013725C3.05382 -0.0188267 2.90303 0.00705867 2.77837 0.0856866C1.62402 0.824796 0.686696 1.85724 0.0622547 3.07744C0.018401 3.16208 -0.00292714 3.2566 0.000322921 3.35187C0.00357298 3.44715 0.0312918 3.53999 0.0808118 3.62145C0.130332 3.70292 0.199986 3.77027 0.283071 3.81701C0.366156 3.86376 0.459875 3.88834 0.555209 3.88838ZM13.4762 11.105C13.5746 11.2737 13.6267 11.4654 13.6274 11.6608C13.6281 11.8561 13.5772 12.0482 13.48 12.2176C13.3828 12.387 13.2426 12.5278 13.0735 12.6257C12.9045 12.7237 12.7127 12.7753 12.5173 12.7754H9.68459C9.55711 13.4033 9.2165 13.9677 8.72049 14.3731C8.22447 14.7785 7.60355 15 6.96292 15C6.3223 15 5.70138 14.7785 5.20536 14.3731C4.70935 13.9677 4.36874 13.4033 4.24126 12.7754H1.40851C1.21328 12.7751 1.02161 12.7232 0.852792 12.6252C0.683974 12.5271 0.543975 12.3863 0.446897 12.217C0.34982 12.0476 0.299092 11.8556 0.299823 11.6604C0.300554 11.4652 0.35272 11.2736 0.451064 11.105C1.07663 10.0253 1.40851 8.49022 1.40851 6.66559C1.40851 5.19247 1.9937 3.77968 3.03536 2.73802C4.07701 1.69637 5.4898 1.11117 6.96292 1.11117C8.43605 1.11117 9.84884 1.69637 10.8905 2.73802C11.9321 3.77968 12.5173 5.19247 12.5173 6.66559C12.5173 8.48952 12.8492 10.0246 13.4762 11.105ZM8.53344 12.7754H5.39241C5.50749 13.1 5.72027 13.3809 6.0015 13.5795C6.28273 13.7782 6.6186 13.8849 6.96292 13.8849C7.30725 13.8849 7.64312 13.7782 7.92435 13.5795C8.20558 13.3809 8.41836 13.1 8.53344 12.7754Z" fill="white"/>
</svg>
