<svg width="92" height="24" viewBox="0 0 92 24" fill="none" xmlns="http://www.w3.org/2000/svg">
<path d="M33.233 18V7.81818H34.4659V12.3523H39.8949V7.81818H41.1278V18H39.8949V13.446H34.4659V18H33.233ZM44.1928 20.8636C43.994 20.8636 43.8166 20.8471 43.6609 20.8139C43.5051 20.7841 43.3974 20.7543 43.3377 20.7244L43.636 19.6903C43.921 19.7633 44.1729 19.7898 44.3917 19.7699C44.6104 19.75 44.8043 19.6522 44.9734 19.4766C45.1457 19.3042 45.3031 19.0241 45.4457 18.6364L45.6644 18.0398L42.8406 10.3636H44.1133L46.2212 16.4489H46.3008L48.4087 10.3636H49.6815L46.44 19.1136C46.2942 19.508 46.1135 19.8345 45.8981 20.093C45.6826 20.3549 45.4324 20.5488 45.1474 20.6747C44.8656 20.8007 44.5475 20.8636 44.1928 20.8636ZM51.2301 20.8636V10.3636H52.3636V11.5767H52.5028C52.589 11.4441 52.7083 11.2751 52.8608 11.0696C53.0166 10.8608 53.2386 10.6752 53.527 10.5128C53.8187 10.3471 54.2131 10.2642 54.7102 10.2642C55.3532 10.2642 55.92 10.425 56.4105 10.7464C56.901 11.0679 57.2839 11.5237 57.5589 12.1136C57.834 12.7036 57.9716 13.3996 57.9716 14.2017C57.9716 15.0104 57.834 15.7114 57.5589 16.3047C57.2839 16.8946 56.9027 17.352 56.4155 17.6768C55.9283 17.9983 55.3665 18.1591 54.7301 18.1591C54.2396 18.1591 53.8468 18.0779 53.5518 17.9155C53.2569 17.7498 53.0298 17.5625 52.8707 17.3537C52.7116 17.1416 52.589 16.9659 52.5028 16.8267H52.4034V20.8636H51.2301ZM52.3835 14.1818C52.3835 14.7585 52.468 15.2673 52.6371 15.7081C52.8061 16.1456 53.053 16.4886 53.3778 16.7372C53.7027 16.9825 54.1004 17.1051 54.571 17.1051C55.0616 17.1051 55.4709 16.9759 55.799 16.7173C56.1304 16.4555 56.379 16.1042 56.5447 15.6634C56.7138 15.2192 56.7983 14.7254 56.7983 14.1818C56.7983 13.6449 56.7154 13.161 56.5497 12.7301C56.3873 12.2959 56.1404 11.9529 55.8089 11.701C55.4808 11.4458 55.0682 11.3182 54.571 11.3182C54.0938 11.3182 53.6927 11.4392 53.3679 11.6811C53.0431 11.9197 52.7978 12.2545 52.6321 12.6854C52.4664 13.1129 52.3835 13.6117 52.3835 14.1818ZM62.9631 18.1591C62.2273 18.1591 61.5926 17.9967 61.0589 17.6719C60.5286 17.3438 60.1193 16.8864 59.831 16.2997C59.5459 15.7098 59.4034 15.0237 59.4034 14.2415C59.4034 13.4593 59.5459 12.7699 59.831 12.1733C60.1193 11.5734 60.5204 11.1061 61.0341 10.7713C61.5511 10.4332 62.1544 10.2642 62.8438 10.2642C63.2415 10.2642 63.6342 10.3305 64.022 10.4631C64.4098 10.5956 64.7628 10.8111 65.081 11.1094C65.3991 11.4044 65.6527 11.7955 65.8416 12.2827C66.0305 12.7699 66.125 13.3698 66.125 14.0824V14.5795H60.2386V13.5653H64.9318C64.9318 13.1345 64.8456 12.75 64.6733 12.4119C64.5043 12.0739 64.2623 11.8071 63.9474 11.6115C63.6359 11.416 63.268 11.3182 62.8438 11.3182C62.3764 11.3182 61.9721 11.4342 61.6307 11.6662C61.2926 11.8949 61.0324 12.1932 60.8501 12.5611C60.6679 12.929 60.5767 13.3234 60.5767 13.7443V14.4205C60.5767 14.9972 60.6761 15.486 60.875 15.8871C61.0772 16.2848 61.3572 16.5881 61.7152 16.7969C62.0732 17.0024 62.4891 17.1051 62.9631 17.1051C63.2713 17.1051 63.5497 17.062 63.7983 16.9759C64.0502 16.8864 64.2673 16.7538 64.4496 16.5781C64.6319 16.3991 64.7727 16.1771 64.8722 15.9119L66.0057 16.2301C65.8864 16.6146 65.6858 16.9527 65.4041 17.2443C65.1224 17.5327 64.7744 17.758 64.3601 17.9205C63.9458 18.0795 63.4801 18.1591 62.9631 18.1591ZM67.9098 18V10.3636H69.0433V11.517H69.1229C69.2621 11.1392 69.514 10.8326 69.8786 10.5973C70.2431 10.362 70.6541 10.2443 71.1115 10.2443C71.1977 10.2443 71.3054 10.246 71.4347 10.2493C71.5639 10.2526 71.6617 10.2576 71.728 10.2642V11.4574C71.6882 11.4474 71.5971 11.4325 71.4545 11.4126C71.3153 11.3894 71.1679 11.3778 71.0121 11.3778C70.6409 11.3778 70.3094 11.4557 70.0178 11.6115C69.7294 11.764 69.5007 11.9761 69.3317 12.2479C69.166 12.5163 69.0831 12.8229 69.0831 13.1676V18H67.9098ZM75.3659 18.179C74.882 18.179 74.4429 18.0878 74.0485 17.9055C73.6541 17.7199 73.3408 17.4531 73.1088 17.1051C72.8768 16.7538 72.7608 16.3295 72.7608 15.8324C72.7608 15.3949 72.847 15.0402 73.0194 14.7685C73.1917 14.4934 73.4221 14.2779 73.7104 14.1222C73.9988 13.9664 74.3169 13.8504 74.665 13.7741C75.0163 13.6946 75.3693 13.6316 75.7239 13.5852C76.1879 13.5256 76.5641 13.4808 76.8525 13.451C77.1441 13.4179 77.3562 13.3632 77.4888 13.2869C77.6247 13.2107 77.6926 13.0781 77.6926 12.8892V12.8494C77.6926 12.3589 77.5584 11.9777 77.29 11.706C77.0248 11.4342 76.6221 11.2983 76.0819 11.2983C75.5217 11.2983 75.0826 11.4209 74.7644 11.6662C74.4462 11.9115 74.2225 12.1733 74.0932 12.4517L72.9796 12.054C73.1784 11.59 73.4436 11.2287 73.775 10.9702C74.1098 10.7083 74.4744 10.526 74.8688 10.4233C75.2665 10.3172 75.6576 10.2642 76.0421 10.2642C76.2873 10.2642 76.5691 10.294 76.8873 10.3537C77.2087 10.41 77.5186 10.5277 77.8169 10.7067C78.1185 10.8857 78.3688 11.1558 78.5676 11.517C78.7665 11.8783 78.8659 12.3622 78.8659 12.9688V18H77.6926V16.9659H77.633C77.5534 17.1316 77.4209 17.3089 77.2353 17.4979C77.0497 17.6868 76.8027 17.8475 76.4945 17.9801C76.1863 18.1127 75.8101 18.179 75.3659 18.179ZM75.5449 17.125C76.0089 17.125 76.4 17.0339 76.7182 16.8516C77.0397 16.6693 77.2817 16.4339 77.4441 16.1456C77.6098 15.8572 77.6926 15.554 77.6926 15.2358V14.1619C77.6429 14.2216 77.5336 14.2763 77.3645 14.326C77.1988 14.3724 77.0066 14.4138 76.7878 14.4503C76.5724 14.4834 76.3619 14.5133 76.1564 14.5398C75.9542 14.563 75.7902 14.5829 75.6642 14.5994C75.3593 14.6392 75.0743 14.7038 74.8091 14.7933C74.5473 14.8795 74.3352 15.0104 74.1728 15.1861C74.0137 15.3584 73.9341 15.5937 73.9341 15.892C73.9341 16.2997 74.0849 16.608 74.3865 16.8168C74.6915 17.0223 75.0776 17.125 75.5449 17.125ZM81.0075 18V10.3636H82.1808V18H81.0075ZM81.604 9.09091C81.3754 9.09091 81.1781 9.01302 81.0124 8.85724C80.85 8.70147 80.7688 8.5142 80.7688 8.29545C80.7688 8.0767 80.85 7.88944 81.0124 7.73366C81.1781 7.57789 81.3754 7.5 81.604 7.5C81.8327 7.5 82.0283 7.57789 82.1907 7.73366C82.3564 7.88944 82.4393 8.0767 82.4393 8.29545C82.4393 8.5142 82.3564 8.70147 82.1907 8.85724C82.0283 9.01302 81.8327 9.09091 81.604 9.09091ZM87.2132 18.1591C86.5769 18.1591 86.0151 17.9983 85.5279 17.6768C85.0407 17.352 84.6595 16.8946 84.3844 16.3047C84.1093 15.7114 83.9718 15.0104 83.9718 14.2017C83.9718 13.3996 84.1093 12.7036 84.3844 12.1136C84.6595 11.5237 85.0423 11.0679 85.5328 10.7464C86.0234 10.425 86.5901 10.2642 87.2331 10.2642C87.7303 10.2642 88.123 10.3471 88.4114 10.5128C88.7031 10.6752 88.9251 10.8608 89.0776 11.0696C89.2334 11.2751 89.3543 11.4441 89.4405 11.5767H89.54V7.81818H90.7132V18H89.5797V16.8267H89.4405C89.3543 16.9659 89.2317 17.1416 89.0726 17.3537C88.9135 17.5625 88.6865 17.7498 88.3915 17.9155C88.0965 18.0779 87.7038 18.1591 87.2132 18.1591ZM87.3723 17.1051C87.843 17.1051 88.2407 16.9825 88.5655 16.7372C88.8903 16.4886 89.1373 16.1456 89.3063 15.7081C89.4753 15.2673 89.5598 14.7585 89.5598 14.1818C89.5598 13.6117 89.477 13.1129 89.3113 12.6854C89.1455 12.2545 88.9003 11.9197 88.5755 11.6811C88.2507 11.4392 87.8496 11.3182 87.3723 11.3182C86.8752 11.3182 86.4609 11.4458 86.1294 11.701C85.8013 11.9529 85.5544 12.2959 85.3887 12.7301C85.2263 13.161 85.1451 13.6449 85.1451 14.1818C85.1451 14.7254 85.2279 15.2192 85.3936 15.6634C85.5627 16.1042 85.8113 16.4555 86.1394 16.7173C86.4708 16.9759 86.8818 17.1051 87.3723 17.1051Z" fill="black"/>
<circle cx="12" cy="12" r="12" fill="#CD4746"/>
<path d="M20.6441 12.1333C20.6441 12.291 20.5815 12.4422 20.47 12.5537C20.3585 12.6651 20.2073 12.7278 20.0497 12.7278H18.039L15.2318 18.3437C15.1824 18.4424 15.1064 18.5255 15.0125 18.5835C14.9185 18.6415 14.8102 18.6722 14.6998 18.6721H14.6701C14.5548 18.6664 14.4436 18.6272 14.3502 18.5594C14.2568 18.4916 14.1851 18.398 14.144 18.2902L9.89603 7.13714L7.51309 12.3793C7.46589 12.4832 7.38978 12.5713 7.29386 12.6331C7.19794 12.6948 7.08626 12.7277 6.97216 12.7278H4.59443C4.43678 12.7278 4.28558 12.6651 4.17411 12.5537C4.06263 12.4422 4 12.291 4 12.1333C4 11.9757 4.06263 11.8245 4.17411 11.713C4.28558 11.6015 4.43678 11.5389 4.59443 11.5389H6.5895L9.40339 5.34864C9.4519 5.24182 9.53094 5.15174 9.63055 5.08975C9.73015 5.02776 9.84588 4.99663 9.96314 5.00029C10.0804 5.00394 10.194 5.04222 10.2895 5.11029C10.3851 5.17836 10.4584 5.27319 10.5001 5.38282L14.7733 16.6027L17.1399 11.8688C17.1891 11.7698 17.265 11.6864 17.359 11.6282C17.453 11.5699 17.5614 11.539 17.6719 11.5389H20.0497C20.2073 11.5389 20.3585 11.6015 20.47 11.713C20.5815 11.8245 20.6441 11.9757 20.6441 12.1333Z" fill="white"/>
</svg>
