<svg width="86" height="86" viewBox="0 0 86 86" fill="none" xmlns="http://www.w3.org/2000/svg">
<path d="M42.9229 20.5872C46.3335 20.5872 49.0983 17.8224 49.0983 14.4118C49.0983 11.0013 46.3335 8.23645 42.9229 8.23645C39.5124 8.23645 36.7476 11.0013 36.7476 14.4118C36.7476 17.8224 39.5124 20.5872 42.9229 20.5872Z" stroke="#061428" stroke-width="2.49369" stroke-miterlimit="10"/>
<path d="M47.998 78.4336L49.2329 57.8647H58.0017C52.3979 44.2761 51.2907 29.6461 51.2907 29.6461C50.6254 27.5684 49.1551 26.4382 46.7582 26.4382H39.0856C36.6886 26.4382 35.2184 27.5684 34.5531 29.6461C34.5531 29.6461 33.4469 44.2761 27.842 57.8647H36.6108L37.8467 78.4336" stroke="#061428" stroke-width="2.49369" stroke-miterlimit="10" stroke-linecap="round" stroke-linejoin="round"/>
</svg>
