<svg width="86" height="86" viewBox="0 0 86 86" fill="none" xmlns="http://www.w3.org/2000/svg">
<path d="M43.3345 20.5872C46.7451 20.5872 49.5099 17.8224 49.5099 14.4118C49.5099 11.0013 46.7451 8.23645 43.3345 8.23645C39.924 8.23645 37.1592 11.0013 37.1592 14.4118C37.1592 17.8224 39.924 20.5872 43.3345 20.5872Z" stroke="#061428" stroke-width="2.49369" stroke-miterlimit="10"/>
<path d="M50.1003 78.4337L50.6888 54.2659C52.9561 53.4489 55.2423 51.5507 55.0029 49.1688L53.5735 30.7773C53.3342 28.3924 51.1756 26.4403 48.7787 26.4403H37.8902C35.4933 26.4403 33.3348 28.3924 33.0954 30.7773L31.665 49.1688C31.4256 51.5537 33.7108 53.4489 35.9811 54.2659L36.5666 78.4337" stroke="#061428" stroke-width="2.49369" stroke-miterlimit="10" stroke-linecap="round" stroke-linejoin="round"/>
</svg>
