<svg width="24" height="25" viewBox="0 0 24 25" fill="none" xmlns="http://www.w3.org/2000/svg">
<path d="M8.74516 1.4789C6.35795 2.30705 4.29923 3.87889 2.87138 5.96356C1.44353 8.04822 0.721821 10.5358 0.812259 13.061C0.902697 15.5861 1.80051 18.0157 3.37384 19.9929C4.94716 21.9701 7.11305 23.3906 9.55339 24.0459C11.5318 24.5564 13.6046 24.5788 15.5937 24.1112C17.3955 23.7065 19.0614 22.8408 20.4281 21.5988C21.8506 20.2667 22.8831 18.5721 23.4146 16.6972C23.9922 14.6582 24.095 12.514 23.7152 10.4292H12.6053V15.0378H19.0394C18.9108 15.7728 18.6352 16.4743 18.2292 17.1004C17.8231 17.7265 17.295 18.2642 16.6763 18.6813C15.8907 19.2012 15.005 19.5509 14.0761 19.708C13.1446 19.8812 12.1891 19.8812 11.2576 19.708C10.3134 19.513 9.42019 19.1233 8.63503 18.5637C7.3735 17.6707 6.42626 16.4021 5.92848 14.9388C5.42243 13.4481 5.42243 11.8321 5.92848 10.3414C6.28281 9.29656 6.86856 8.34519 7.64201 7.55836C8.52713 6.6414 9.64771 5.98595 10.8808 5.66392C12.1139 5.3419 13.4119 5.36574 14.6324 5.73284C15.5858 6.02538 16.4577 6.53674 17.1784 7.22611C17.9039 6.50437 18.6281 5.78075 19.3511 5.05527C19.7244 4.66516 20.1313 4.29371 20.499 3.89426C19.3987 2.87047 18.1073 2.07379 16.6987 1.54983C14.1334 0.618387 11.3266 0.593355 8.74516 1.4789Z" fill="white"/>
<path d="M8.7451 1.47883C11.3263 0.592684 14.1332 0.617057 16.6986 1.54789C18.1075 2.07541 19.3983 2.87593 20.4971 3.90352C20.1238 4.30297 19.7299 4.67629 19.3492 5.06454C18.6249 5.78753 17.9013 6.50803 17.1783 7.22604C16.4576 6.53667 15.5858 6.02531 14.6323 5.73278C13.4123 5.36439 12.1143 5.33916 10.8809 5.65987C9.64744 5.98058 8.52617 6.63482 7.64008 7.55083C6.86663 8.33766 6.28088 9.28902 5.92656 10.3339L2.05713 7.33804C3.44215 4.59147 5.84023 2.49056 8.7451 1.47883Z" fill="#E33629"/>
<path d="M1.03052 10.3059C1.23835 9.2751 1.58364 8.27689 2.05714 7.33801L5.92657 10.3413C5.42052 11.832 5.42052 13.4481 5.92657 14.9387C4.63738 15.9343 3.34758 16.9347 2.05714 17.9402C0.872145 15.5814 0.510741 12.8939 1.03052 10.3059Z" fill="#F8BD00"/>
<path d="M12.6051 10.4272H23.715C24.0948 12.5121 23.992 14.6563 23.4145 16.6952C22.8829 18.5702 21.8504 20.2648 20.4279 21.5969C19.1792 20.6225 17.9248 19.6556 16.6761 18.6813C17.2952 18.2637 17.8236 17.7254 18.2297 17.0987C18.6357 16.4719 18.9111 15.7697 19.0392 15.034H12.6051C12.6032 13.4996 12.6051 11.9634 12.6051 10.4272Z" fill="#587DBD"/>
<path d="M2.05518 17.9403C3.34561 16.9448 4.63542 15.9443 5.9246 14.9388C6.42337 16.4026 7.37196 17.6713 8.63488 18.5637C9.42249 19.1207 10.3176 19.5072 11.263 19.6986C12.1946 19.8719 13.15 19.8719 14.0816 19.6986C15.0104 19.5416 15.8961 19.1919 16.6817 18.672C17.9305 19.6464 19.1848 20.6133 20.4336 21.5876C19.067 22.8303 17.4011 23.6966 15.5991 24.1019C13.6101 24.5695 11.5373 24.5471 9.55884 24.0366C7.99409 23.6188 6.5325 22.8823 5.2657 21.8732C3.92498 20.8085 2.82987 19.467 2.05518 17.9403Z" fill="#319F43"/>
</svg>
