<svg width="218" height="59" viewBox="0 0 218 59" fill="none" xmlns="http://www.w3.org/2000/svg">
<path d="M34.801 12.6431L33.9562 13.2406C33.746 13.3892 33.6961 13.6802 33.8448 13.8904L33.874 13.9317C34.0227 14.1419 34.3136 14.1917 34.5238 14.0431L35.3686 13.4456C35.5788 13.2969 35.6287 13.006 35.48 12.7958L35.4508 12.7545C35.3021 12.5443 35.0112 12.4944 34.801 12.6431Z" fill="#2B2B2B"/>
<path d="M35.0506 11.1455L34.4213 11.5906C34.2011 11.7463 34.1489 12.0511 34.3046 12.2713L35.5544 14.0384C35.7101 14.2586 36.0149 14.3109 36.2351 14.1551L36.8644 13.71C37.0846 13.5543 37.1369 13.2495 36.9812 13.0293L35.7314 11.2622C35.5756 11.042 35.2709 10.9897 35.0506 11.1455Z" fill="#92CACF"/>
<path d="M35.5739 11.3826C35.4247 11.321 34.7612 11.8291 34.6379 11.9265C34.2926 12.1978 34.4418 12.1731 34.4085 12.1731C34.5318 12.1731 34.5614 12.0917 35.0091 11.8291C35.2891 11.6638 35.7392 11.4517 35.5739 11.3826Z" fill="#2B2B2B"/>
<path d="M35.9168 11.7797C35.717 11.7131 33.7548 13.2707 35.3852 12.2594C35.5825 12.1361 36.1289 11.8487 35.9168 11.7797Z" fill="#2B2B2B"/>
<path d="M36.1486 12.2804C36.0252 12.2891 34.8401 13.1437 35.0596 13.0636C35.4925 12.9045 36.579 12.2484 36.1486 12.2804Z" fill="#2B2B2B"/>
<path d="M36.584 12.6591C36.3941 12.5975 34.7341 13.8924 35.7824 13.2943C36.0562 13.1364 36.8085 12.7319 36.584 12.6591Z" fill="#2B2B2B"/>
<path d="M36.9281 13.1436C36.7702 13.1362 36.0154 13.7035 35.8748 13.928C35.7959 14.0525 37.2672 13.1584 36.9281 13.1436Z" fill="#2B2B2B"/>
<path opacity="0.2" d="M36.8591 13.1622C36.8319 13.029 36.3275 12.2496 36.3213 12.2385C35.9366 11.6477 35.6233 10.9645 35.1473 11.2518C35.1041 11.2777 33.3812 12.5283 35.1374 11.3813C35.5838 11.0903 35.6307 11.4825 36.4595 12.8613C36.5236 12.9984 36.6108 13.1235 36.7172 13.2312C36.7298 13.2426 36.7455 13.2499 36.7623 13.2523C36.7791 13.2546 36.7962 13.2519 36.8114 13.2445C36.8266 13.2371 36.8393 13.2253 36.8478 13.2106C36.8563 13.196 36.8602 13.1791 36.8591 13.1622Z" fill="white"/>
<path opacity="0.2" d="M35.4778 11.7649C35.1078 11.7822 34.6355 12.3816 34.7588 12.2903C34.8476 12.2237 35.7861 11.7514 35.4778 11.7649Z" fill="white"/>
<path opacity="0.2" d="M35.6812 12.3074C35.4839 12.3074 34.8734 12.7317 35.2853 12.5751C35.3445 12.5529 35.9044 12.3025 35.6812 12.3074Z" fill="white"/>
<path opacity="0.2" d="M35.8242 12.7454C35.654 12.701 35.2668 13.087 35.4197 13.0747C35.5061 13.0673 36.0351 12.7996 35.8242 12.7454Z" fill="white"/>
<path opacity="0.2" d="M36.1412 13.3164C35.8416 13.3065 35.6615 13.6789 35.7182 13.6345C35.9784 13.4323 36.309 13.3213 36.1412 13.3164Z" fill="white"/>
<path opacity="0.2" d="M36.6025 13.5926C36.3559 13.7245 35.9218 14.1525 36.2042 13.9699C36.7468 13.6222 36.6457 13.5704 36.6025 13.5926Z" fill="white"/>
<path opacity="0.1" d="M34.1766 13.2596C34.1483 13.288 34.554 13.1967 34.6218 13.1005C34.7156 12.9698 34.4812 12.9562 34.1766 13.2596Z" fill="white"/>
<path opacity="0.1" d="M34.9055 13.5137C34.7267 13.4779 34.5836 13.8109 34.7279 13.7603C34.8019 13.7603 35.0301 13.542 34.9055 13.5137Z" fill="white"/>
<path d="M33.8597 13.0734C35.886 15.8075 40.3874 21.8851 42.5 27.5779L39.8633 25.2988C37.6224 20.7209 34.2802 16.2034 32.6314 13.9835C32.122 13.3003 31.7903 12.8477 31.6287 12.5899L32.9261 11.7797C33.0543 11.9847 33.4034 12.4567 33.8457 13.0545L33.8597 13.0734Z" fill="#2B2B2B"/>
<path d="M24.8081 0.788834L24.0056 1.3564C23.7592 1.53063 23.7008 1.87158 23.875 2.11793L24.9474 3.63431C25.1217 3.88066 25.4626 3.93912 25.709 3.76489L26.5115 3.19732C26.7578 3.02309 26.8163 2.68215 26.6421 2.4358L25.5696 0.919415C25.3954 0.673067 25.0544 0.614603 24.8081 0.788834Z" fill="#4B4B4B"/>
<path d="M31.4933 10.2434L30.6909 10.811C30.4445 10.9852 30.386 11.3262 30.5603 11.5725L31.6327 13.0889C31.807 13.3352 32.1479 13.3937 32.3943 13.2195L33.1968 12.6519C33.4431 12.4777 33.5016 12.1367 33.3273 11.8904L32.2549 10.374C32.0806 10.1277 31.7397 10.0692 31.4933 10.2434Z" fill="#4B4B4B"/>
<path d="M31.9269 11.7723C33.6958 10.5212 33.6246 7.37881 31.7678 4.7535C29.9111 2.12819 26.9719 1.01415 25.2029 2.26523C23.434 3.51631 23.5052 6.65875 25.362 9.28406C27.2187 11.9094 30.1579 13.0234 31.9269 11.7723Z" fill="#2B2B2B"/>
<path d="M31.9258 11.7699C30.6506 12.6727 28.765 12.3446 27.1161 11.1064C28.596 11.9697 30.161 12.1177 31.271 11.3333C33.0395 10.0815 32.9679 6.93916 31.1106 4.31353C30.623 3.61771 30.0301 3.00194 29.3532 2.48828C30.3092 3.06544 31.1318 3.83888 31.7667 4.7575C33.624 7.37574 33.6943 10.5181 31.9258 11.7699Z" fill="#4B4B4B"/>
<path opacity="0.1" d="M29.9095 11.3851C26.8633 10.687 24.9542 6.9453 25.0393 4.76857C25.0862 3.58586 25.688 3.33797 26.005 2.84343C26.4194 2.19596 24.5916 1.88888 24.1896 4.13343C23.7172 6.76647 26.3047 11.8032 29.9058 11.4097C29.9194 11.4085 29.9243 11.3888 29.9095 11.3851Z" fill="white"/>
<path opacity="0.05" d="M24.985 0.984811C24.7285 1.02674 24.0662 1.47812 24.0107 1.65448C23.9047 1.99856 24.5596 2.70523 24.5312 2.52517C24.4449 1.98993 24.1834 1.86044 24.4153 1.65078C24.6471 1.44112 24.9308 1.41152 25.1121 1.15007C25.175 1.05757 25.0726 0.971245 24.985 0.984811Z" fill="white"/>
<path opacity="0.05" d="M32.3501 11.459C32.0093 11.679 31.6845 11.923 31.3783 12.1891C31.3179 12.2495 31.6164 12.2052 31.995 11.956C32.6375 11.5232 32.4402 11.4171 32.3501 11.459Z" fill="white"/>
<path opacity="0.05" d="M32.9619 12.1571C32.4846 12.1855 32.1775 12.6627 32.0394 12.6381C31.953 12.6233 31.5374 12.2755 31.6336 12.4457C32.3465 13.7246 33.5884 12.125 32.9619 12.1571Z" fill="white"/>
<path d="M7.371 15.895V43H2.925V15.895H7.371ZM28.5651 15.895V43H24.1191V15.895H28.5651ZM77.7496 23.968C77.7496 25.346 77.4245 26.646 76.7745 27.868C76.1245 29.09 75.0845 30.091 73.6545 30.871C72.2245 31.625 70.3915 32.002 68.1555 32.002H63.2415V43H58.7955V15.895H68.1555C70.2355 15.895 71.9905 16.259 73.4205 16.987C74.8765 17.689 75.9556 18.651 76.6576 19.873C77.3856 21.095 77.7496 22.46 77.7496 23.968ZM68.1555 28.375C69.8455 28.375 71.1065 27.998 71.9385 27.244C72.7705 26.464 73.1865 25.372 73.1865 23.968C73.1865 21.004 71.5095 19.522 68.1555 19.522H63.2415V28.375H68.1555ZM86.8259 19.483V27.439H96.1859V31.066H86.8259V39.373H97.3559V43H82.3799V15.856H97.3559V19.483H86.8259ZM117.301 43L111.061 32.158H107.668V43H103.222V15.895H112.582C114.662 15.895 116.417 16.259 117.847 16.987C119.303 17.715 120.382 18.69 121.084 19.912C121.812 21.134 122.176 22.499 122.176 24.007C122.176 25.775 121.656 27.387 120.616 28.843C119.602 30.273 118.029 31.248 115.897 31.768L122.605 43H117.301ZM107.668 28.609H112.582C114.246 28.609 115.494 28.193 116.326 27.361C117.184 26.529 117.613 25.411 117.613 24.007C117.613 22.603 117.197 21.511 116.365 20.731C115.533 19.925 114.272 19.522 112.582 19.522H107.668V28.609ZM144.595 37.462H133.246L131.296 43H126.655L136.366 15.856H141.514L151.225 43H146.545L144.595 37.462ZM143.347 33.835L138.94 21.238L134.494 33.835H143.347ZM160.283 15.895V43H155.837V15.895H160.283ZM175.363 15.895C178.249 15.895 180.771 16.454 182.929 17.572C185.113 18.664 186.79 20.25 187.96 22.33C189.156 24.384 189.754 26.789 189.754 29.545C189.754 32.301 189.156 34.693 187.96 36.721C186.79 38.749 185.113 40.309 182.929 41.401C180.771 42.467 178.249 43 175.363 43H166.51V15.895H175.363ZM175.363 39.373C178.535 39.373 180.966 38.515 182.656 36.799C184.346 35.083 185.191 32.665 185.191 29.545C185.191 26.399 184.346 23.942 182.656 22.174C180.966 20.406 178.535 19.522 175.363 19.522H170.956V39.373H175.363Z" fill="#2B2B2B"/>
<path d="M54.8773 15.895L45.9073 33.172V43H41.4613V33.172L32.4523 15.895H37.4053L43.6843 29.194L49.9633 15.895H54.8773Z" fill="#CD4746"/>
<path d="M25.4922 29.75C25.4922 30.0173 25.386 30.2736 25.197 30.4626C25.008 30.6516 24.7517 30.7578 24.4844 30.7578H22.42L19.3387 36.9197C19.2549 37.087 19.1263 37.2277 18.9671 37.3261C18.808 37.4244 18.6246 37.4765 18.4375 37.4765H18.3871C18.1917 37.4667 18.0033 37.4001 17.8451 37.2849C17.6869 37.1698 17.5656 37.0111 17.496 36.8282L12.9785 24.9755L10.6202 30.1699C10.5398 30.3455 10.4105 30.4942 10.248 30.5984C10.0854 30.7027 9.89625 30.758 9.70312 30.7578H7.01562C6.74834 30.7578 6.492 30.6516 6.30299 30.4626C6.11399 30.2736 6.00781 30.0173 6.00781 29.75C6.00781 29.4827 6.11399 29.2264 6.30299 29.0374C6.492 28.8484 6.74834 28.7422 7.01562 28.7422H9.05393L12.1454 21.9394C12.2278 21.7586 12.3619 21.6062 12.5307 21.5014C12.6996 21.3965 12.8956 21.344 13.0942 21.3502C13.2929 21.3565 13.4852 21.4214 13.6471 21.5367C13.8089 21.652 13.9331 21.8126 14.004 21.9982L18.5626 33.9626L20.8957 29.2965C20.9798 29.1296 21.1086 28.9894 21.2677 28.8916C21.4268 28.7937 21.6101 28.742 21.7969 28.7422H24.4844C24.7517 28.7422 25.008 28.8484 25.197 29.0374C25.386 29.2264 25.4922 29.4827 25.4922 29.75Z" fill="#2B2B2B"/>
<path d="M160.695 16.7746L155.21 16.8146L156.261 13.31L159.595 13.2868L160.695 16.7746Z" fill="#303E4D"/>
<path d="M160.419 15.647L155.47 15.6824C155.173 15.6846 154.934 15.9271 154.936 16.2242L154.956 19.0209C154.958 19.318 155.201 19.5571 155.498 19.555L160.446 19.5195C160.744 19.5174 160.983 19.2748 160.981 18.9777L160.961 16.1811C160.958 15.884 160.716 15.6448 160.419 15.647Z" fill="#2B2B2B"/>
<path d="M160.133 14.2987C162.44 13.0673 163.311 10.1995 162.079 7.89335C160.848 5.58718 157.98 4.71592 155.674 5.94733C153.368 7.17874 152.497 10.0465 153.728 12.3527C154.959 14.6589 157.827 15.5301 160.133 14.2987Z" fill="#2B2B2B"/>
<path d="M159.932 13.5266C161.811 12.4066 162.426 9.97584 161.306 8.0972C160.186 6.21857 157.755 5.60351 155.876 6.72343C153.998 7.84335 153.383 10.2742 154.503 12.1528C155.623 14.0314 158.053 14.6465 159.932 13.5266Z" fill="white"/>
<path d="M157.933 14.0853C157.178 14.0911 156.437 13.8807 155.798 13.479C155.158 13.0772 154.647 12.5009 154.324 11.8181C154.908 12.6105 155.766 13.1573 156.731 13.3519C157.696 13.5465 158.698 13.3749 159.543 12.8707C160.389 12.3664 161.016 11.5656 161.303 10.6242C161.59 9.68273 161.516 8.66815 161.096 7.77806C161.529 8.36624 161.79 9.06243 161.852 9.78978C161.913 10.5171 161.773 11.2474 161.445 11.8999C161.118 12.5524 160.617 13.1018 159.997 13.4874C159.378 13.8731 158.663 14.08 157.933 14.0853Z" fill="#D3EBED"/>
<path d="M158.669 6.75056L158.52 7.4367C157.947 7.26132 157.335 7.26365 156.764 7.44339C156.193 7.62312 155.69 7.97181 155.321 8.44342C154.952 8.91503 154.735 9.48738 154.699 10.0849C154.662 10.6824 154.807 11.277 155.116 11.7902L154.933 11.8969C154.587 11.3155 154.418 10.6451 154.449 9.96884C154.479 9.29256 154.707 8.64009 155.105 8.09226C155.503 7.54443 156.052 7.12531 156.686 6.88682C157.32 6.64833 158.009 6.60096 158.669 6.75056Z" fill="#2B2B2B"/>
<path d="M160.819 8.26154L160.15 8.67994C159.773 8.084 159.194 7.64299 158.52 7.43678L158.669 6.75064C159.557 6.95086 160.33 7.49397 160.819 8.26154Z" fill="#CD4746"/>
<g style="mix-blend-mode:multiply" opacity="0.75">
<path d="M158.22 11.694L157.477 11.4183L159.34 7.53778L158.22 11.694Z" fill="#DEE7EE"/>
<path d="M158.792 10.6197C158.753 10.7233 158.685 10.8131 158.595 10.8778C158.505 10.9425 158.399 10.9792 158.288 10.9832C158.178 10.9872 158.069 10.9583 157.975 10.9003C157.881 10.8422 157.806 10.7576 157.76 10.6571C157.714 10.5566 157.699 10.4447 157.717 10.3356C157.734 10.2265 157.784 10.1251 157.859 10.0442C157.934 9.96335 158.032 9.90663 158.14 9.88124C158.247 9.85585 158.36 9.86294 158.463 9.9016C158.532 9.92711 158.595 9.96594 158.649 10.0159C158.703 10.0658 158.746 10.1258 158.777 10.1926C158.807 10.2593 158.824 10.3313 158.827 10.4046C158.829 10.4779 158.817 10.551 158.792 10.6197Z" fill="#DEE7EE"/>
<path d="M158.505 10.5134C158.488 10.5603 158.457 10.6009 158.417 10.6302C158.376 10.6596 158.328 10.6762 158.278 10.678C158.228 10.6799 158.178 10.6669 158.136 10.6406C158.093 10.6144 158.06 10.5761 158.039 10.5307C158.018 10.4852 158.011 10.4346 158.019 10.3853C158.027 10.3359 158.05 10.2901 158.084 10.2535C158.118 10.2169 158.162 10.1912 158.21 10.1798C158.259 10.1683 158.31 10.1715 158.357 10.189C158.42 10.2124 158.47 10.2597 158.498 10.3205C158.526 10.3813 158.529 10.4507 158.505 10.5134Z" fill="#DEE7EE"/>
</g>
<path d="M157.856 11.3802L157.113 11.1044L158.976 7.22394L157.856 11.3802Z" fill="#2B2B2B"/>
<path d="M158.433 10.306C158.394 10.4096 158.326 10.4996 158.237 10.5645C158.147 10.6295 158.04 10.6664 157.93 10.6706C157.82 10.6749 157.71 10.6463 157.616 10.5884C157.522 10.5306 157.447 10.4461 157.401 10.3457C157.355 10.2452 157.339 10.1334 157.357 10.0243C157.374 9.91511 157.424 9.8136 157.499 9.73256C157.574 9.65152 157.672 9.5946 157.779 9.569C157.887 9.54339 157.999 9.55026 158.103 9.58872C158.172 9.61409 158.235 9.65279 158.289 9.70259C158.342 9.75239 158.386 9.81232 158.417 9.87895C158.447 9.94558 158.464 10.0176 158.467 10.0909C158.47 10.1641 158.458 10.2372 158.433 10.306Z" fill="#2B2B2B"/>
<path d="M158.14 10.198C158.123 10.2446 158.092 10.2851 158.052 10.3142C158.012 10.3434 157.964 10.36 157.914 10.3619C157.864 10.3637 157.815 10.3509 157.773 10.3249C157.731 10.2989 157.697 10.2609 157.676 10.2157C157.655 10.1706 157.649 10.1203 157.656 10.0712C157.664 10.0221 157.686 9.97644 157.72 9.93995C157.754 9.90347 157.798 9.87781 157.846 9.86622C157.894 9.85462 157.945 9.85761 157.992 9.87481C158.054 9.89818 158.105 9.94526 158.133 10.0058C158.16 10.0664 158.163 10.1354 158.14 10.198Z" fill="white"/>
<path opacity="0.05" d="M159.795 6.1875C159.183 5.564 157.492 5.58982 156.636 5.83272C152.89 6.88915 152.323 11.9833 155.232 13.6436C155.515 13.8055 152.313 11.1515 154.245 7.9825C156.072 4.98492 159.434 6.3467 159.721 6.37285C159.741 6.37113 159.761 6.36371 159.778 6.3514C159.795 6.33909 159.807 6.32238 159.815 6.30315C159.823 6.28392 159.825 6.26292 159.822 6.24249C159.818 6.22207 159.809 6.20303 159.795 6.1875Z" fill="white"/>
<path opacity="0.05" d="M162.279 9.45919C162.13 11.0036 162.368 12.8637 158.885 14.3562C158.689 14.4407 160.349 14.3798 161.618 12.7405C163.174 10.7265 162.347 8.72216 162.279 9.45919Z" fill="white"/>
<path opacity="0.05" d="M160.557 16.0004C159.836 15.8181 158.965 15.9485 158.224 15.9487C156.131 15.9528 155.37 15.6225 155.297 16.7966C155.249 17.4798 155.182 18.3234 155.452 18.9654C155.561 19.2246 155.6 17.3907 155.604 17.3754C155.622 17.004 155.518 16.4117 156.006 16.2808C156.274 16.2109 159.926 16.3957 160.567 16.2361C160.593 16.2284 160.616 16.2123 160.632 16.1902C160.648 16.1681 160.656 16.1413 160.654 16.1141C160.653 16.087 160.643 16.061 160.625 16.0404C160.607 16.0198 160.583 16.0057 160.557 16.0004Z" fill="white"/>
<path opacity="0.05" d="M160.608 18.2859C160.6 18.2585 160.582 18.2346 160.559 18.2177C160.535 18.2009 160.507 18.1921 160.478 18.1925C160.449 18.1929 160.421 18.2026 160.398 18.22C160.376 18.2375 160.359 18.2619 160.351 18.2896C160.261 18.7079 160.351 18.866 160.113 18.8432C159.83 18.9396 159.038 18.7854 157.427 19.177C157.351 19.1941 157.488 19.1574 160.079 19.1492C160.579 19.1479 160.708 18.7483 160.608 18.2859Z" fill="white"/>
<path opacity="0.05" d="M159.109 16.7266C158.538 16.9668 158.35 17.424 156.785 18.0628C156.601 18.1415 157.376 18.0468 158.104 17.6949C159.313 17.1078 159.325 16.6359 159.109 16.7266Z" fill="white"/>
<path opacity="0.05" d="M159.448 17.336C159.232 17.4479 159.043 17.6229 158.829 17.7442C158.623 17.8385 158.427 17.9519 158.242 18.083C158.152 18.1605 159.144 18.1522 159.559 17.4479C159.566 17.4324 159.568 17.4152 159.564 17.3986C159.561 17.382 159.553 17.3667 159.541 17.3547C159.529 17.3427 159.514 17.3345 159.498 17.3312C159.481 17.3278 159.464 17.3295 159.448 17.336Z" fill="white"/>
<path opacity="0.05" d="M159.354 15.2516C158.941 15.1644 155.623 15.0316 156.319 15.1449C156.537 15.18 158.871 15.4538 159.336 15.4247C159.431 15.4188 159.456 15.2722 159.354 15.2516Z" fill="white"/>
<path opacity="0.05" d="M158.38 8.71799C158.397 8.62349 158.071 9.40278 158.067 9.41308C158.034 9.49988 158.229 9.56435 158.38 8.71799Z" fill="white"/>
<path opacity="0.05" d="M157.51 10.9167C157.978 10.0556 157.165 10.9723 157.349 11.0588C157.532 11.1453 157.653 11.2146 157.725 11.1052C157.764 11.0411 157.744 10.9295 157.51 10.9167Z" fill="white"/>
<path d="M191.685 23.5H192.409L193.1 23.6381L193.652 23.8451L194.135 24.1212L194.446 24.3628L194.722 24.6044L195.067 25.0531L195.343 25.5362L195.654 26.3991L196.344 28.5733L197.586 32.5078L198.277 34.6821L198.76 36.2351L198.932 36.6493L199.139 36.8909L199.484 37.0634L199.657 37.0979H208.078L208.423 36.2351L208.699 35.7519L208.975 35.3723L209.39 34.9236L209.769 34.613L210.183 34.3024L210.736 33.9918L211.288 33.7847L211.909 33.6467L212.185 33.6122H213.117L213.807 33.7157L214.359 33.8883L214.981 34.1644L215.498 34.475L215.981 34.8891L216.465 35.3723L216.844 35.9245L217.12 36.4422L217.362 37.167L217.465 37.6846L217.5 37.9953V38.789L217.396 39.4793L217.224 40.066L216.982 40.6182L216.672 41.1014L216.327 41.55L215.878 41.9987L215.326 42.4129L214.774 42.7235L214.256 42.9305L213.6 43.1031L213.117 43.1721H212.254L211.391 42.9996L210.805 42.7925L210.218 42.4819L209.735 42.1368L209.321 41.7571L209.079 41.5155L208.665 40.9633L208.285 40.2386L208.113 39.7554V39.6519L206.007 39.6864H201.693L199.519 39.6519L199.001 39.5828L198.484 39.4103L197.828 39.0651L197.483 38.789L197.069 38.3749L196.758 37.9262L196.482 37.374L196.068 36.1316L195.377 33.9573L193.1 26.7442L192.893 26.3645L192.547 26.123L192.306 26.0539H191.788L191.443 26.2265L191.201 26.5026L190.511 27.745L190.097 28.4698L189.579 29.4016L189.2 30.0229L188.889 30.4025L188.579 30.7131L188.095 31.0582L187.543 31.3343L187.06 31.4724L186.508 31.5414H186.059L185.403 31.4379L184.782 31.2308L184.333 30.9892L183.885 30.6441L183.471 30.2299L183.126 29.7123L182.815 29.1255L182.608 28.884L182.297 28.7114L182.159 28.6769H181.78L181.469 28.7804L181.262 28.9185L180.986 29.2291L180.503 29.9538L179.847 30.9202L179.536 31.2653L179.122 31.4724L178.984 31.5069H178.604L178.156 31.3689L177.811 31.0582L177.604 30.7476L177.535 30.5406L177.5 30.2299L177.569 29.8503L177.811 29.4016L178.19 28.8494L178.742 28.0211L179.088 27.538L179.398 27.1928L179.674 26.9167L180.192 26.5716L180.744 26.33L181.227 26.192L181.849 26.123L182.435 26.1575L183.057 26.2955L183.678 26.5716L184.092 26.8132L184.506 27.1928L184.817 27.538L185.093 27.9866L185.438 28.6424L185.645 28.8149L185.956 28.953L186.059 28.9875H186.439L186.784 28.884L187.025 28.7114L187.267 28.3318L187.612 27.7105L188.061 26.9167L188.544 26.0539L188.993 25.2601L189.303 24.8115L189.821 24.2938L190.27 23.9832L190.753 23.7416L191.27 23.569L191.685 23.5Z" fill="#CD4746"/>
</svg>
