<svg width="40" height="35" viewBox="0 0 40 35" fill="none" xmlns="http://www.w3.org/2000/svg">
<path d="M5.82817 26.44L3.74017 32H2.68417L0.588172 26.44H1.56417L3.21217 31.064L4.86817 26.44H5.82817ZM7.21486 27.008C7.04953 27.008 6.91086 26.952 6.79886 26.84C6.68686 26.728 6.63086 26.5893 6.63086 26.424C6.63086 26.2587 6.68686 26.12 6.79886 26.008C6.91086 25.896 7.04953 25.84 7.21486 25.84C7.37486 25.84 7.51086 25.896 7.62286 26.008C7.73486 26.12 7.79086 26.2587 7.79086 26.424C7.79086 26.5893 7.73486 26.728 7.62286 26.84C7.51086 26.952 7.37486 27.008 7.21486 27.008ZM7.66286 27.592V32H6.75086V27.592H7.66286ZM10.0842 28.336V30.776C10.0842 30.9413 10.1216 31.0613 10.1962 31.136C10.2762 31.2053 10.4096 31.24 10.5962 31.24H11.1562V32H10.4362C10.0256 32 9.7109 31.904 9.49223 31.712C9.27357 31.52 9.16423 31.208 9.16423 30.776V28.336H8.64423V27.592H9.16423V26.496H10.0842V27.592H11.1562V28.336H10.0842ZM11.8528 29.776C11.8528 29.3333 11.9435 28.9413 12.1248 28.6C12.3115 28.2587 12.5621 27.9947 12.8768 27.808C13.1968 27.616 13.5488 27.52 13.9328 27.52C14.2795 27.52 14.5808 27.5893 14.8368 27.728C15.0981 27.8613 15.3061 28.0293 15.4608 28.232V27.592H16.3808V32H15.4608V31.344C15.3061 31.552 15.0955 31.7253 14.8288 31.864C14.5621 32.0027 14.2581 32.072 13.9168 32.072C13.5381 32.072 13.1915 31.976 12.8768 31.784C12.5621 31.5867 12.3115 31.3147 12.1248 30.968C11.9435 30.616 11.8528 30.2187 11.8528 29.776ZM15.4608 29.792C15.4608 29.488 15.3968 29.224 15.2688 29C15.1461 28.776 14.9835 28.6053 14.7808 28.488C14.5781 28.3707 14.3595 28.312 14.1248 28.312C13.8901 28.312 13.6715 28.3707 13.4688 28.488C13.2661 28.6 13.1008 28.768 12.9728 28.992C12.8501 29.2107 12.7888 29.472 12.7888 29.776C12.7888 30.08 12.8501 30.3467 12.9728 30.576C13.1008 30.8053 13.2661 30.9813 13.4688 31.104C13.6768 31.2213 13.8955 31.28 14.1248 31.28C14.3595 31.28 14.5781 31.2213 14.7808 31.104C14.9835 30.9867 15.1461 30.816 15.2688 30.592C15.3968 30.3627 15.4608 30.096 15.4608 29.792ZM18.6507 26.08V32H17.7387V26.08H18.6507ZM21.84 32.056C21.4667 32.056 21.1307 31.992 20.832 31.864C20.5334 31.7307 20.2987 31.544 20.128 31.304C19.9574 31.064 19.872 30.784 19.872 30.464H20.848C20.8694 30.704 20.9627 30.9013 21.128 31.056C21.2987 31.2107 21.536 31.288 21.84 31.288C22.1547 31.288 22.4 31.2133 22.576 31.064C22.752 30.9093 22.84 30.712 22.84 30.472C22.84 30.2853 22.784 30.1333 22.672 30.016C22.5654 29.8987 22.4294 29.808 22.264 29.744C22.104 29.68 21.88 29.6107 21.592 29.536C21.2294 29.44 20.9334 29.344 20.704 29.248C20.48 29.1467 20.288 28.992 20.128 28.784C19.968 28.576 19.888 28.2987 19.888 27.952C19.888 27.632 19.968 27.352 20.128 27.112C20.288 26.872 20.512 26.688 20.8 26.56C21.088 26.432 21.4214 26.368 21.8 26.368C22.3387 26.368 22.7787 26.504 23.12 26.776C23.4667 27.0427 23.6587 27.4107 23.696 27.88H22.688C22.672 27.6773 22.576 27.504 22.4 27.36C22.224 27.216 21.992 27.144 21.704 27.144C21.4427 27.144 21.2294 27.2107 21.064 27.344C20.8987 27.4773 20.816 27.6693 20.816 27.92C20.816 28.0907 20.8667 28.232 20.968 28.344C21.0747 28.4507 21.208 28.536 21.368 28.6C21.528 28.664 21.7467 28.7333 22.024 28.808C22.392 28.9093 22.6907 29.0107 22.92 29.112C23.1547 29.2133 23.352 29.3707 23.512 29.584C23.6774 29.792 23.76 30.072 23.76 30.424C23.76 30.7067 23.6827 30.9733 23.528 31.224C23.3787 31.4747 23.1574 31.6773 22.864 31.832C22.576 31.9813 22.2347 32.056 21.84 32.056ZM28.9642 27.592L26.2602 34.072H25.3162L26.2122 31.928L24.4762 27.592H25.4922L26.7322 30.952L28.0202 27.592H28.9642ZM32.0364 27.52C32.3831 27.52 32.6924 27.592 32.9644 27.736C33.2418 27.88 33.4578 28.0933 33.6124 28.376C33.7671 28.6587 33.8444 29 33.8444 29.4V32H32.9404V29.536C32.9404 29.1413 32.8418 28.84 32.6444 28.632C32.4471 28.4187 32.1778 28.312 31.8364 28.312C31.4951 28.312 31.2231 28.4187 31.0204 28.632C30.8231 28.84 30.7244 29.1413 30.7244 29.536V32H29.8124V27.592H30.7244V28.096C30.8738 27.9147 31.0631 27.7733 31.2924 27.672C31.5271 27.5707 31.7751 27.52 32.0364 27.52ZM34.8637 29.792C34.8637 29.3387 34.9544 28.9413 35.1357 28.6C35.3224 28.2533 35.5784 27.9867 35.9037 27.8C36.2291 27.6133 36.6024 27.52 37.0237 27.52C37.5571 27.52 37.9971 27.648 38.3437 27.904C38.6957 28.1547 38.9331 28.5147 39.0557 28.984H38.0717C37.9917 28.7653 37.8637 28.5947 37.6877 28.472C37.5117 28.3493 37.2904 28.288 37.0237 28.288C36.6504 28.288 36.3517 28.4213 36.1277 28.688C35.9091 28.9493 35.7997 29.3173 35.7997 29.792C35.7997 30.2667 35.9091 30.6373 36.1277 30.904C36.3517 31.1707 36.6504 31.304 37.0237 31.304C37.5517 31.304 37.9011 31.072 38.0717 30.608H39.0557C38.9277 31.056 38.6877 31.4133 38.3357 31.68C37.9837 31.9413 37.5464 32.072 37.0237 32.072C36.6024 32.072 36.2291 31.9787 35.9037 31.792C35.5784 31.6 35.3224 31.3333 35.1357 30.992C34.9544 30.6453 34.8637 30.2453 34.8637 29.792Z" fill="#2B2B2B"/>
<path d="M14.6504 10.292H10.9004C10.7015 10.292 10.5107 10.2085 10.3701 10.0601C10.2294 9.9116 10.1504 9.71023 10.1504 9.50026C10.1504 9.29029 10.2294 9.08892 10.3701 8.94045C10.5107 8.79198 10.7015 8.70857 10.9004 8.70857H14.2491L15.526 6.68581C15.5945 6.57722 15.6873 6.48816 15.7962 6.42656C15.9052 6.36497 16.0268 6.33274 16.1504 6.33274C16.274 6.33274 16.3956 6.36497 16.5046 6.42656C16.6135 6.48816 16.7063 6.57722 16.7748 6.68581L19.1504 10.4463L20.026 9.06087C20.0946 8.95242 20.1874 8.86352 20.2963 8.80206C20.4053 8.7406 20.5269 8.70849 20.6504 8.70857H22.9004C23.0993 8.70857 23.2901 8.79198 23.4307 8.94045C23.5714 9.08892 23.6504 9.29029 23.6504 9.50026C23.6504 9.71023 23.5714 9.9116 23.4307 10.0601C23.2901 10.2085 23.0993 10.292 22.9004 10.292H21.0516L19.7748 12.3147C19.7063 12.4233 19.6135 12.5124 19.5046 12.574C19.3956 12.6356 19.274 12.6678 19.1504 12.6678C19.0268 12.6678 18.9052 12.6356 18.7962 12.574C18.6873 12.5124 18.5945 12.4233 18.526 12.3147L16.1504 8.55221L15.2748 9.93767C15.2064 10.0465 15.1137 10.1358 15.0047 10.1976C14.8958 10.2594 14.7741 10.2918 14.6504 10.292ZM24.5879 0C22.652 0 20.957 0.878774 19.9004 2.36418C18.8438 0.878774 17.1488 0 15.2129 0C13.6719 0.00183349 12.1944 0.648848 11.1048 1.7991C10.0151 2.94934 9.40213 4.50889 9.40039 6.13559C9.40039 6.20981 9.40039 6.28403 9.40039 6.35825C9.40661 6.56822 9.49159 6.76698 9.63663 6.91081C9.78168 7.05464 9.97492 7.13176 10.1738 7.1252C10.3727 7.11863 10.561 7.02893 10.6973 6.87582C10.8336 6.72271 10.9066 6.51874 10.9004 6.30877C10.9004 6.25137 10.9004 6.19298 10.9004 6.13559C10.9019 4.92875 11.3567 3.77179 12.1651 2.91842C12.9736 2.06506 14.0696 1.58495 15.2129 1.58338C17.0363 1.58338 18.5673 2.60861 19.2066 4.25533C19.2631 4.40053 19.3593 4.52472 19.4828 4.61213C19.6063 4.69953 19.7517 4.7462 19.9004 4.7462C20.0491 4.7462 20.1945 4.69953 20.318 4.61213C20.4415 4.52472 20.5376 4.40053 20.5941 4.25533C21.2335 2.60564 22.7645 1.58338 24.5879 1.58338C25.7312 1.58495 26.8272 2.06506 27.6356 2.91842C28.4441 3.77179 28.8989 4.92875 28.9004 6.13559C28.9004 11.4409 21.6104 16.2445 19.9004 17.2984C18.8851 16.6739 15.9038 14.7254 13.6491 12.1316C13.5825 12.055 13.5023 11.9929 13.4129 11.949C13.3236 11.905 13.227 11.8801 13.1285 11.8756C13.03 11.8711 12.9317 11.8871 12.8391 11.9227C12.7465 11.9583 12.6615 12.0128 12.5888 12.0831C12.5162 12.1535 12.4574 12.2382 12.4158 12.3325C12.3741 12.4268 12.3505 12.5288 12.3463 12.6327C12.342 12.7367 12.3572 12.8405 12.3909 12.9382C12.4246 13.0359 12.4763 13.1257 12.5429 13.2024C15.4651 16.5671 19.3801 18.8115 19.5451 18.9055C19.6543 18.9675 19.7764 19 19.9004 19C20.0244 19 20.1465 18.9675 20.2557 18.9055C20.6701 18.67 30.4004 13.0629 30.4004 6.13559C30.3987 4.50889 29.7857 2.94934 28.696 1.7991C27.6064 0.648848 26.1289 0.00183349 24.5879 0Z" fill="#2B2B2B"/>
</svg>
