<svg width="30" height="36" viewBox="0 0 30 36" fill="none" xmlns="http://www.w3.org/2000/svg">
<path d="M4.05216 27.44V28.184H1.69216V29.824H3.53216V30.568H1.69216V33H0.780157V27.44H4.05216ZM5.52134 28.008C5.35601 28.008 5.21734 27.952 5.10534 27.84C4.99334 27.728 4.93734 27.5893 4.93734 27.424C4.93734 27.2587 4.99334 27.12 5.10534 27.008C5.21734 26.896 5.35601 26.84 5.52134 26.84C5.68134 26.84 5.81734 26.896 5.92934 27.008C6.04134 27.12 6.09734 27.2587 6.09734 27.424C6.09734 27.5893 6.04134 27.728 5.92934 27.84C5.81734 27.952 5.68134 28.008 5.52134 28.008ZM5.96934 28.592V33H5.05734V28.592H5.96934ZM8.39072 29.336V31.776C8.39072 31.9413 8.42805 32.0613 8.50272 32.136C8.58272 32.2053 8.71605 32.24 8.90272 32.24H9.46272V33H8.74272C8.33205 33 8.01739 32.904 7.79872 32.712C7.58005 32.52 7.47072 32.208 7.47072 31.776V29.336H6.95072V28.592H7.47072V27.496H8.39072V28.592H9.46272V29.336H8.39072ZM12.2953 33.056C11.9219 33.056 11.5859 32.992 11.2873 32.864C10.9886 32.7307 10.7539 32.544 10.5833 32.304C10.4126 32.064 10.3273 31.784 10.3273 31.464H11.3033C11.3246 31.704 11.4179 31.9013 11.5833 32.056C11.7539 32.2107 11.9913 32.288 12.2953 32.288C12.6099 32.288 12.8553 32.2133 13.0313 32.064C13.2073 31.9093 13.2953 31.712 13.2953 31.472C13.2953 31.2853 13.2393 31.1333 13.1273 31.016C13.0206 30.8987 12.8846 30.808 12.7193 30.744C12.5593 30.68 12.3353 30.6107 12.0473 30.536C11.6846 30.44 11.3886 30.344 11.1593 30.248C10.9353 30.1467 10.7433 29.992 10.5833 29.784C10.4233 29.576 10.3433 29.2987 10.3433 28.952C10.3433 28.632 10.4233 28.352 10.5833 28.112C10.7433 27.872 10.9673 27.688 11.2553 27.56C11.5433 27.432 11.8766 27.368 12.2553 27.368C12.7939 27.368 13.2339 27.504 13.5753 27.776C13.9219 28.0427 14.1139 28.4107 14.1513 28.88H13.1433C13.1273 28.6773 13.0313 28.504 12.8553 28.36C12.6793 28.216 12.4473 28.144 12.1593 28.144C11.8979 28.144 11.6846 28.2107 11.5193 28.344C11.3539 28.4773 11.2713 28.6693 11.2713 28.92C11.2713 29.0907 11.3219 29.232 11.4233 29.344C11.5299 29.4507 11.6633 29.536 11.8233 29.6C11.9833 29.664 12.2019 29.7333 12.4793 29.808C12.8473 29.9093 13.1459 30.0107 13.3753 30.112C13.6099 30.2133 13.8073 30.3707 13.9673 30.584C14.1326 30.792 14.2153 31.072 14.2153 31.424C14.2153 31.7067 14.1379 31.9733 13.9833 32.224C13.8339 32.4747 13.6126 32.6773 13.3193 32.832C13.0313 32.9813 12.6899 33.056 12.2953 33.056ZM19.4194 28.592L16.7154 35.072H15.7714L16.6674 32.928L14.9314 28.592H15.9474L17.1874 31.952L18.4754 28.592H19.4194ZM22.4917 28.52C22.8383 28.52 23.1477 28.592 23.4197 28.736C23.697 28.88 23.913 29.0933 24.0677 29.376C24.2223 29.6587 24.2997 30 24.2997 30.4V33H23.3957V30.536C23.3957 30.1413 23.297 29.84 23.0997 29.632C22.9023 29.4187 22.633 29.312 22.2917 29.312C21.9503 29.312 21.6783 29.4187 21.4757 29.632C21.2783 29.84 21.1797 30.1413 21.1797 30.536V33H20.2677V28.592H21.1797V29.096C21.329 28.9147 21.5183 28.7733 21.7477 28.672C21.9823 28.5707 22.2303 28.52 22.4917 28.52ZM25.319 30.792C25.319 30.3387 25.4096 29.9413 25.591 29.6C25.7776 29.2533 26.0336 28.9867 26.359 28.8C26.6843 28.6133 27.0576 28.52 27.479 28.52C28.0123 28.52 28.4523 28.648 28.799 28.904C29.151 29.1547 29.3883 29.5147 29.511 29.984H28.527C28.447 29.7653 28.319 29.5947 28.143 29.472C27.967 29.3493 27.7456 29.288 27.479 29.288C27.1056 29.288 26.807 29.4213 26.583 29.688C26.3643 29.9493 26.255 30.3173 26.255 30.792C26.255 31.2667 26.3643 31.6373 26.583 31.904C26.807 32.1707 27.1056 32.304 27.479 32.304C28.007 32.304 28.3563 32.072 28.527 31.608H29.511C29.383 32.056 29.143 32.4133 28.791 32.68C28.439 32.9413 28.0016 33.072 27.479 33.072C27.0576 33.072 26.6843 32.9787 26.359 32.792C26.0336 32.6 25.7776 32.3333 25.591 31.992C25.4096 31.6453 25.319 31.2453 25.319 30.792Z" fill="#2B2B2B"/>
<path d="M17.4612 2.6145C17.4612 2.0974 17.3079 1.59191 17.0206 1.16196C16.7333 0.73201 16.325 0.396903 15.8473 0.199018C15.3695 0.00113281 14.8438 -0.0506429 14.3367 0.050238C13.8295 0.151119 13.3637 0.400126 12.998 0.76577C12.6324 1.13141 12.3834 1.59727 12.2825 2.10444C12.1816 2.6116 12.2334 3.13729 12.4313 3.61502C12.6291 4.09276 12.9642 4.50109 13.3942 4.78837C13.8242 5.07566 14.3296 5.229 14.8467 5.229C15.5401 5.229 16.2052 4.95354 16.6955 4.46323C17.1858 3.97291 17.4612 3.30791 17.4612 2.6145ZM14.8467 3.92175C14.5882 3.92175 14.3354 3.84508 14.1205 3.70144C13.9055 3.55779 13.7379 3.35363 13.639 3.11476C13.5401 2.87589 13.5142 2.61305 13.5646 2.35947C13.615 2.10589 13.7396 1.87296 13.9224 1.69013C14.1052 1.50731 14.3381 1.38281 14.5917 1.33237C14.8453 1.28193 15.1081 1.30782 15.347 1.40676C15.5859 1.5057 15.79 1.67325 15.9337 1.88823C16.0773 2.10321 16.154 2.35595 16.154 2.6145C16.154 2.9612 16.0163 3.29371 15.7711 3.53886C15.5259 3.78402 15.1934 3.92175 14.8467 3.92175ZM22.2278 10.2987L18.5373 6.11384C18.2919 5.8357 17.9901 5.61295 17.6521 5.46039C17.314 5.30783 16.9473 5.22896 16.5764 5.229H13.1171C12.7462 5.22896 12.3795 5.30783 12.0414 5.46039C11.7033 5.61295 11.4016 5.8357 11.1562 6.11384L7.46568 10.2987C7.16598 10.6052 6.99873 11.0172 7.00001 11.4459C7.00128 11.8746 7.17097 12.2856 7.47249 12.5904C7.77401 12.8951 8.18322 13.0691 8.61187 13.075C9.04053 13.0808 9.45431 12.9179 9.76399 12.6215L11.0958 11.5528L9.74438 16.6903C9.5654 17.0852 9.55062 17.5351 9.70331 17.9409C9.856 18.3467 10.1636 18.6752 10.5586 18.8542C10.9535 19.0332 11.4033 19.048 11.8091 18.8953C12.2149 18.7426 12.5435 18.435 12.7225 18.04L14.8467 14.374L16.971 18.04C17.158 18.4217 17.4863 18.7155 17.8863 18.8591C18.2863 19.0027 18.7266 18.9848 19.1136 18.8092C19.5006 18.6336 19.804 18.3141 19.9594 17.9185C20.1148 17.5229 20.1099 17.0824 19.9458 16.6903L18.5977 11.5528L19.9295 12.6215C20.2392 12.9179 20.6529 13.0808 21.0816 13.075C21.5103 13.0691 21.9195 12.8951 22.221 12.5904C22.5225 12.2856 22.6922 11.8746 22.6935 11.4459C22.6947 11.0172 22.5275 10.6052 22.2278 10.2987ZM21.2874 11.6688C21.257 11.6992 21.221 11.7233 21.1813 11.7398C21.1416 11.7562 21.0991 11.7647 21.0562 11.7647C21.0132 11.7647 20.9707 11.7562 20.931 11.7398C20.8913 11.7233 20.8553 11.6992 20.8249 11.6688C20.8078 11.6525 20.7906 11.6361 20.7718 11.6214L17.8697 9.29454C17.7626 9.20904 17.6314 9.15938 17.4945 9.15256C17.3576 9.14574 17.2221 9.18211 17.107 9.25654C16.9919 9.33097 16.9032 9.43968 16.8533 9.56731C16.8033 9.69494 16.7948 9.83503 16.8289 9.96777L18.6982 17.0759C18.7078 17.1138 18.721 17.1508 18.7374 17.1862C18.7563 17.2252 18.7672 17.2676 18.7696 17.3108C18.7719 17.3541 18.7656 17.3974 18.7511 17.4382C18.7366 17.479 18.7141 17.5165 18.685 17.5485C18.6558 17.5805 18.6206 17.6065 18.5813 17.6248C18.5421 17.6431 18.4996 17.6534 18.4563 17.6551C18.413 17.6568 18.3698 17.6499 18.3292 17.6348C18.2887 17.6197 18.2515 17.5967 18.2199 17.5671C18.1882 17.5375 18.1628 17.5019 18.1451 17.4624C18.1371 17.4447 18.1281 17.4276 18.1181 17.4109L15.4121 12.7457C15.3547 12.6466 15.2722 12.5644 15.173 12.5073C15.0737 12.4501 14.9612 12.42 14.8467 12.42C14.7322 12.42 14.6197 12.4501 14.5205 12.5073C14.4213 12.5644 14.3388 12.6466 14.2814 12.7457L11.5786 17.4068C11.5687 17.4235 11.5597 17.4407 11.5517 17.4583C11.5335 17.4973 11.5079 17.5322 11.4762 17.5613C11.4445 17.5903 11.4074 17.6128 11.367 17.6274C11.3062 17.6497 11.2402 17.6534 11.1773 17.6381C11.1144 17.6228 11.0575 17.5892 11.0137 17.5415C10.97 17.4938 10.9413 17.4342 10.9315 17.3702C10.9217 17.3062 10.9311 17.2408 10.9585 17.1822C10.975 17.1467 10.9881 17.1098 10.9977 17.0719L12.8646 9.96777C12.8987 9.83503 12.8901 9.69494 12.8402 9.56731C12.7903 9.43968 12.7015 9.33097 12.5865 9.25654C12.4714 9.18211 12.3358 9.14574 12.199 9.15256C12.0621 9.15938 11.9308 9.20904 11.8237 9.29454L8.92163 11.6214C8.90284 11.6361 8.88568 11.6525 8.86853 11.6688C8.83851 11.7005 8.80246 11.7258 8.7625 11.7433C8.72254 11.7608 8.67949 11.7701 8.63587 11.7707C8.59225 11.7713 8.54896 11.7632 8.50853 11.7468C8.46811 11.7304 8.43138 11.7061 8.40051 11.6752C8.36964 11.6444 8.34525 11.6077 8.32878 11.5673C8.31231 11.5269 8.30409 11.4837 8.30461 11.44C8.30513 11.3964 8.31438 11.3534 8.3318 11.3134C8.34923 11.2734 8.37449 11.2373 8.40609 11.2072C8.41589 11.1974 8.42488 11.1876 8.43387 11.177L12.1366 6.97826C12.2594 6.83926 12.4103 6.72797 12.5793 6.65176C12.7483 6.57555 12.9317 6.53617 13.1171 6.53624H16.5764C16.7618 6.53617 16.9451 6.57555 17.1142 6.65176C17.2832 6.72797 17.4341 6.83926 17.5568 6.97826L21.2596 11.177C21.2686 11.1876 21.2776 11.1974 21.2874 11.2072C21.3485 11.2685 21.3828 11.3515 21.3828 11.438C21.3828 11.5246 21.3485 11.6076 21.2874 11.6688Z" fill="#2B2B2B"/>
</svg>
