<svg width="41" height="34" viewBox="0 0 41 34" fill="none" xmlns="http://www.w3.org/2000/svg">
<path d="M20.4999 1.46191C18.72 1.46191 16.98 1.97621 15.5 2.93976C14.0201 3.90332 12.8666 5.27286 12.1854 6.87519C11.5042 8.47752 11.326 10.2407 11.6733 11.9417C12.0205 13.6427 12.8776 15.2052 14.1363 16.4316C15.3949 17.658 16.9984 18.4931 18.7442 18.8315C20.4899 19.1699 22.2994 18.9962 23.9439 18.3325C25.5884 17.6688 26.9939 16.5448 27.9828 15.1028C28.9717 13.6607 29.4995 11.9653 29.4995 10.231C29.4968 7.90608 28.5477 5.67718 26.8606 4.03324C25.1734 2.3893 22.8859 1.46457 20.4999 1.46191ZM20.4999 17.5385C19.0166 17.5385 17.5666 17.1099 16.3333 16.3069C15.1 15.504 14.1388 14.3627 13.5711 13.0274C13.0035 11.6921 12.855 10.2228 13.1444 8.80533C13.4338 7.3878 14.148 6.08572 15.1969 5.06375C16.2457 4.04177 17.582 3.3458 19.0368 3.06383C20.4916 2.78187 21.9995 2.92658 23.3699 3.47967C24.7403 4.03276 25.9116 4.96939 26.7356 6.17111C27.5597 7.37282 27.9996 8.78566 27.9996 10.231C27.9973 12.1684 27.2065 14.0258 25.8005 15.3958C24.3945 16.7657 22.4883 17.5363 20.4999 17.5385ZM14.2808 1.24817L11.281 4.17118C11.1403 4.3083 10.9494 4.38533 10.7504 4.38533C10.5514 4.38533 10.3605 4.3083 10.2198 4.17118C10.0791 4.03406 10 3.84809 10 3.65417C10 3.46026 10.0791 3.27428 10.2198 3.13717L13.2196 0.214152C13.3604 0.0770326 13.5512 0 13.7502 0C13.9493 0 14.1401 0.0770326 14.2808 0.214152C14.4216 0.351271 14.5006 0.537244 14.5006 0.73116C14.5006 0.925075 14.4216 1.11105 14.2808 1.24817ZM30.78 4.17118C30.7104 4.23912 30.6277 4.29302 30.5366 4.3298C30.4456 4.36657 30.348 4.3855 30.2494 4.3855C30.1509 4.3855 30.0533 4.36657 29.9623 4.3298C29.8712 4.29302 29.7885 4.23912 29.7188 4.17118L26.719 1.24817C26.5783 1.11105 26.4992 0.925075 26.4992 0.73116C26.4992 0.537244 26.5783 0.351271 26.719 0.214152C26.8597 0.0770326 27.0506 3.82254e-09 27.2496 0C27.4486 -3.82254e-09 27.6395 0.0770326 27.7802 0.214152L30.78 3.13717C30.8498 3.20503 30.9051 3.28563 30.9428 3.37434C30.9806 3.46305 31 3.55814 31 3.65417C31 3.75021 30.9806 3.8453 30.9428 3.93401C30.9051 4.02272 30.8498 4.10331 30.78 4.17118ZM25.7497 9.5002C25.9486 9.5002 26.1393 9.57719 26.28 9.71423C26.4206 9.85128 26.4996 10.0371 26.4996 10.231C26.4996 10.4248 26.4206 10.6106 26.28 10.7477C26.1393 10.8847 25.9486 10.9617 25.7497 10.9617H20.4999C20.301 10.9617 20.1103 10.8847 19.9696 10.7477C19.829 10.6106 19.7499 10.4248 19.7499 10.231V5.11568C19.7499 4.92187 19.829 4.736 19.9696 4.59896C20.1103 4.46192 20.301 4.38493 20.4999 4.38493C20.6988 4.38493 20.8896 4.46192 21.0302 4.59896C21.1709 4.736 21.2499 4.92187 21.2499 5.11568V9.5002H25.7497Z" fill="#2B2B2B"/>
<path d="M3.90847 32L2.62847 29.776H1.93247V32H1.02047V26.44H2.94047C3.36714 26.44 3.72714 26.5147 4.02047 26.664C4.31914 26.8133 4.54047 27.0133 4.68447 27.264C4.8338 27.5147 4.90847 27.7947 4.90847 28.104C4.90847 28.4667 4.8018 28.7973 4.58847 29.096C4.38047 29.3893 4.0578 29.5893 3.62047 29.696L4.99647 32H3.90847ZM1.93247 29.048H2.94047C3.2818 29.048 3.5378 28.9627 3.70847 28.792C3.88447 28.6213 3.97247 28.392 3.97247 28.104C3.97247 27.816 3.88714 27.592 3.71647 27.432C3.5458 27.2667 3.28714 27.184 2.94047 27.184H1.93247V29.048ZM10.2752 29.688C10.2752 29.8533 10.2645 30.0027 10.2432 30.136H6.87516C6.90182 30.488 7.03249 30.7707 7.26716 30.984C7.50182 31.1973 7.78982 31.304 8.13116 31.304C8.62182 31.304 8.96849 31.0987 9.17116 30.688H10.1552C10.0218 31.0933 9.77916 31.4267 9.42716 31.688C9.08049 31.944 8.64849 32.072 8.13116 32.072C7.70982 32.072 7.33116 31.9787 6.99516 31.792C6.66449 31.6 6.40316 31.3333 6.21116 30.992C6.02449 30.6453 5.93116 30.2453 5.93116 29.792C5.93116 29.3387 6.02182 28.9413 6.20316 28.6C6.38982 28.2533 6.64849 27.9867 6.97916 27.8C7.31516 27.6133 7.69916 27.52 8.13116 27.52C8.54716 27.52 8.91782 27.6107 9.24316 27.792C9.56849 27.9733 9.82182 28.2293 10.0032 28.56C10.1845 28.8853 10.2752 29.2613 10.2752 29.688ZM9.32316 29.4C9.31782 29.064 9.19782 28.7947 8.96316 28.592C8.72849 28.3893 8.43782 28.288 8.09116 28.288C7.77649 28.288 7.50716 28.3893 7.28316 28.592C7.05916 28.7893 6.92582 29.0587 6.88316 29.4H9.32316ZM16.6687 27.52C17.0153 27.52 17.3247 27.592 17.5967 27.736C17.874 27.88 18.09 28.0933 18.2447 28.376C18.4047 28.6587 18.4847 29 18.4847 29.4V32H17.5807V29.536C17.5807 29.1413 17.482 28.84 17.2847 28.632C17.0873 28.4187 16.818 28.312 16.4767 28.312C16.1353 28.312 15.8633 28.4187 15.6607 28.632C15.4633 28.84 15.3647 29.1413 15.3647 29.536V32H14.4607V29.536C14.4607 29.1413 14.362 28.84 14.1647 28.632C13.9673 28.4187 13.698 28.312 13.3567 28.312C13.0153 28.312 12.7433 28.4187 12.5407 28.632C12.3433 28.84 12.2447 29.1413 12.2447 29.536V32H11.3327V27.592H12.2447V28.096C12.394 27.9147 12.5833 27.7733 12.8127 27.672C13.042 27.5707 13.2873 27.52 13.5487 27.52C13.9007 27.52 14.2153 27.5947 14.4927 27.744C14.77 27.8933 14.9833 28.1093 15.1327 28.392C15.266 28.1253 15.474 27.9147 15.7567 27.76C16.0393 27.6 16.3433 27.52 16.6687 27.52ZM20.2692 27.008C20.1038 27.008 19.9652 26.952 19.8532 26.84C19.7412 26.728 19.6852 26.5893 19.6852 26.424C19.6852 26.2587 19.7412 26.12 19.8532 26.008C19.9652 25.896 20.1038 25.84 20.2692 25.84C20.4292 25.84 20.5652 25.896 20.6772 26.008C20.7892 26.12 20.8452 26.2587 20.8452 26.424C20.8452 26.5893 20.7892 26.728 20.6772 26.84C20.5652 26.952 20.4292 27.008 20.2692 27.008ZM20.7172 27.592V32H19.8052V27.592H20.7172ZM24.2985 27.52C24.6452 27.52 24.9545 27.592 25.2265 27.736C25.5039 27.88 25.7199 28.0933 25.8745 28.376C26.0292 28.6587 26.1065 29 26.1065 29.4V32H25.2025V29.536C25.2025 29.1413 25.1039 28.84 24.9065 28.632C24.7092 28.4187 24.4399 28.312 24.0985 28.312C23.7572 28.312 23.4852 28.4187 23.2825 28.632C23.0852 28.84 22.9865 29.1413 22.9865 29.536V32H22.0745V27.592H22.9865V28.096C23.1359 27.9147 23.3252 27.7733 23.5545 27.672C23.7892 27.5707 24.0372 27.52 24.2985 27.52ZM27.1258 29.776C27.1258 29.3333 27.2165 28.9413 27.3978 28.6C27.5845 28.2587 27.8352 27.9947 28.1498 27.808C28.4698 27.616 28.8245 27.52 29.2138 27.52C29.5018 27.52 29.7845 27.584 30.0618 27.712C30.3445 27.8347 30.5685 28 30.7338 28.208V26.08H31.6538V32H30.7338V31.336C30.5845 31.5493 30.3765 31.7253 30.1098 31.864C29.8485 32.0027 29.5472 32.072 29.2058 32.072C28.8218 32.072 28.4698 31.976 28.1498 31.784C27.8352 31.5867 27.5845 31.3147 27.3978 30.968C27.2165 30.616 27.1258 30.2187 27.1258 29.776ZM30.7338 29.792C30.7338 29.488 30.6698 29.224 30.5418 29C30.4192 28.776 30.2565 28.6053 30.0538 28.488C29.8512 28.3707 29.6325 28.312 29.3978 28.312C29.1632 28.312 28.9445 28.3707 28.7418 28.488C28.5392 28.6 28.3738 28.768 28.2458 28.992C28.1232 29.2107 28.0618 29.472 28.0618 29.776C28.0618 30.08 28.1232 30.3467 28.2458 30.576C28.3738 30.8053 28.5392 30.9813 28.7418 31.104C28.9498 31.2213 29.1685 31.28 29.3978 31.28C29.6325 31.28 29.8512 31.2213 30.0538 31.104C30.2565 30.9867 30.4192 30.816 30.5418 30.592C30.6698 30.3627 30.7338 30.096 30.7338 29.792ZM37.0517 29.688C37.0517 29.8533 37.0411 30.0027 37.0197 30.136H33.6517C33.6784 30.488 33.8091 30.7707 34.0437 30.984C34.2784 31.1973 34.5664 31.304 34.9077 31.304C35.3984 31.304 35.7451 31.0987 35.9477 30.688H36.9317C36.7984 31.0933 36.5557 31.4267 36.2037 31.688C35.8571 31.944 35.4251 32.072 34.9077 32.072C34.4864 32.072 34.1077 31.9787 33.7717 31.792C33.4411 31.6 33.1797 31.3333 32.9877 30.992C32.8011 30.6453 32.7077 30.2453 32.7077 29.792C32.7077 29.3387 32.7984 28.9413 32.9797 28.6C33.1664 28.2533 33.4251 27.9867 33.7557 27.8C34.0917 27.6133 34.4757 27.52 34.9077 27.52C35.3237 27.52 35.6944 27.6107 36.0197 27.792C36.3451 27.9733 36.5984 28.2293 36.7797 28.56C36.9611 28.8853 37.0517 29.2613 37.0517 29.688ZM36.0997 29.4C36.0944 29.064 35.9744 28.7947 35.7397 28.592C35.5051 28.3893 35.2144 28.288 34.8677 28.288C34.5531 28.288 34.2837 28.3893 34.0597 28.592C33.8357 28.7893 33.7024 29.0587 33.6597 29.4H36.0997ZM39.0212 28.232C39.1545 28.008 39.3305 27.8347 39.5492 27.712C39.7732 27.584 40.0372 27.52 40.3412 27.52V28.464H40.1092C39.7519 28.464 39.4799 28.5547 39.2932 28.736C39.1119 28.9173 39.0212 29.232 39.0212 29.68V32H38.1092V27.592H39.0212V28.232Z" fill="#2B2B2B"/>
</svg>
