<svg width="40" height="35" viewBox="0 0 40 35" fill="none" xmlns="http://www.w3.org/2000/svg">
<path d="M5.82817 26.44L3.74017 32H2.68417L0.588172 26.44H1.56417L3.21217 31.064L4.86817 26.44H5.82817ZM7.21486 27.008C7.04953 27.008 6.91086 26.952 6.79886 26.84C6.68686 26.728 6.63086 26.5893 6.63086 26.424C6.63086 26.2587 6.68686 26.12 6.79886 26.008C6.91086 25.896 7.04953 25.84 7.21486 25.84C7.37486 25.84 7.51086 25.896 7.62286 26.008C7.73486 26.12 7.79086 26.2587 7.79086 26.424C7.79086 26.5893 7.73486 26.728 7.62286 26.84C7.51086 26.952 7.37486 27.008 7.21486 27.008ZM7.66286 27.592V32H6.75086V27.592H7.66286ZM10.0842 28.336V30.776C10.0842 30.9413 10.1216 31.0613 10.1962 31.136C10.2762 31.2053 10.4096 31.24 10.5962 31.24H11.1562V32H10.4362C10.0256 32 9.7109 31.904 9.49223 31.712C9.27357 31.52 9.16423 31.208 9.16423 30.776V28.336H8.64423V27.592H9.16423V26.496H10.0842V27.592H11.1562V28.336H10.0842ZM11.8528 29.776C11.8528 29.3333 11.9435 28.9413 12.1248 28.6C12.3115 28.2587 12.5621 27.9947 12.8768 27.808C13.1968 27.616 13.5488 27.52 13.9328 27.52C14.2795 27.52 14.5808 27.5893 14.8368 27.728C15.0981 27.8613 15.3061 28.0293 15.4608 28.232V27.592H16.3808V32H15.4608V31.344C15.3061 31.552 15.0955 31.7253 14.8288 31.864C14.5621 32.0027 14.2581 32.072 13.9168 32.072C13.5381 32.072 13.1915 31.976 12.8768 31.784C12.5621 31.5867 12.3115 31.3147 12.1248 30.968C11.9435 30.616 11.8528 30.2187 11.8528 29.776ZM15.4608 29.792C15.4608 29.488 15.3968 29.224 15.2688 29C15.1461 28.776 14.9835 28.6053 14.7808 28.488C14.5781 28.3707 14.3595 28.312 14.1248 28.312C13.8901 28.312 13.6715 28.3707 13.4688 28.488C13.2661 28.6 13.1008 28.768 12.9728 28.992C12.8501 29.2107 12.7888 29.472 12.7888 29.776C12.7888 30.08 12.8501 30.3467 12.9728 30.576C13.1008 30.8053 13.2661 30.9813 13.4688 31.104C13.6768 31.2213 13.8955 31.28 14.1248 31.28C14.3595 31.28 14.5781 31.2213 14.7808 31.104C14.9835 30.9867 15.1461 30.816 15.2688 30.592C15.3968 30.3627 15.4608 30.096 15.4608 29.792ZM18.6507 26.08V32H17.7387V26.08H18.6507ZM21.84 32.056C21.4667 32.056 21.1307 31.992 20.832 31.864C20.5334 31.7307 20.2987 31.544 20.128 31.304C19.9574 31.064 19.872 30.784 19.872 30.464H20.848C20.8694 30.704 20.9627 30.9013 21.128 31.056C21.2987 31.2107 21.536 31.288 21.84 31.288C22.1547 31.288 22.4 31.2133 22.576 31.064C22.752 30.9093 22.84 30.712 22.84 30.472C22.84 30.2853 22.784 30.1333 22.672 30.016C22.5654 29.8987 22.4294 29.808 22.264 29.744C22.104 29.68 21.88 29.6107 21.592 29.536C21.2294 29.44 20.9334 29.344 20.704 29.248C20.48 29.1467 20.288 28.992 20.128 28.784C19.968 28.576 19.888 28.2987 19.888 27.952C19.888 27.632 19.968 27.352 20.128 27.112C20.288 26.872 20.512 26.688 20.8 26.56C21.088 26.432 21.4214 26.368 21.8 26.368C22.3387 26.368 22.7787 26.504 23.12 26.776C23.4667 27.0427 23.6587 27.4107 23.696 27.88H22.688C22.672 27.6773 22.576 27.504 22.4 27.36C22.224 27.216 21.992 27.144 21.704 27.144C21.4427 27.144 21.2294 27.2107 21.064 27.344C20.8987 27.4773 20.816 27.6693 20.816 27.92C20.816 28.0907 20.8667 28.232 20.968 28.344C21.0747 28.4507 21.208 28.536 21.368 28.6C21.528 28.664 21.7467 28.7333 22.024 28.808C22.392 28.9093 22.6907 29.0107 22.92 29.112C23.1547 29.2133 23.352 29.3707 23.512 29.584C23.6774 29.792 23.76 30.072 23.76 30.424C23.76 30.7067 23.6827 30.9733 23.528 31.224C23.3787 31.4747 23.1574 31.6773 22.864 31.832C22.576 31.9813 22.2347 32.056 21.84 32.056ZM28.9642 27.592L26.2602 34.072H25.3162L26.2122 31.928L24.4762 27.592H25.4922L26.7322 30.952L28.0202 27.592H28.9642ZM32.0364 27.52C32.3831 27.52 32.6924 27.592 32.9644 27.736C33.2418 27.88 33.4578 28.0933 33.6124 28.376C33.7671 28.6587 33.8444 29 33.8444 29.4V32H32.9404V29.536C32.9404 29.1413 32.8418 28.84 32.6444 28.632C32.4471 28.4187 32.1778 28.312 31.8364 28.312C31.4951 28.312 31.2231 28.4187 31.0204 28.632C30.8231 28.84 30.7244 29.1413 30.7244 29.536V32H29.8124V27.592H30.7244V28.096C30.8738 27.9147 31.0631 27.7733 31.2924 27.672C31.5271 27.5707 31.7751 27.52 32.0364 27.52ZM34.8637 29.792C34.8637 29.3387 34.9544 28.9413 35.1357 28.6C35.3224 28.2533 35.5784 27.9867 35.9037 27.8C36.2291 27.6133 36.6024 27.52 37.0237 27.52C37.5571 27.52 37.9971 27.648 38.3437 27.904C38.6957 28.1547 38.9331 28.5147 39.0557 28.984H38.0717C37.9917 28.7653 37.8637 28.5947 37.6877 28.472C37.5117 28.3493 37.2904 28.288 37.0237 28.288C36.6504 28.288 36.3517 28.4213 36.1277 28.688C35.9091 28.9493 35.7997 29.3173 35.7997 29.792C35.7997 30.2667 35.9091 30.6373 36.1277 30.904C36.3517 31.1707 36.6504 31.304 37.0237 31.304C37.5517 31.304 37.9011 31.072 38.0717 30.608H39.0557C38.9277 31.056 38.6877 31.4133 38.3357 31.68C37.9837 31.9413 37.5464 32.072 37.0237 32.072C36.6024 32.072 36.2291 31.9787 35.9037 31.792C35.5784 31.6 35.3224 31.3333 35.1357 30.992C34.9544 30.6453 34.8637 30.2453 34.8637 29.792Z" fill="#2B2B2B"/>
<path d="M24.5879 0.046875C26.1156 0.0487086 27.581 0.690592 28.6621 1.83203C29.7431 2.9735 30.3517 4.52148 30.3535 6.13672C30.3535 9.58019 27.9338 12.7025 25.4512 14.998C22.9706 17.2916 20.438 18.7494 20.2324 18.8643C20.1302 18.9223 20.0162 18.9531 19.9004 18.9531C19.7846 18.9531 19.6706 18.9223 19.5684 18.8643C19.4121 18.7756 17.9245 17.9193 16.1357 16.5137C14.4579 15.1952 12.5178 13.3958 11.1602 11.2979L10.8965 10.875C10.8654 10.8221 10.8481 10.7608 10.8467 10.6982C10.8453 10.6358 10.8601 10.5739 10.8887 10.5195C10.9173 10.4652 10.9587 10.4199 11.0088 10.3887C11.0589 10.3575 11.1161 10.341 11.1738 10.3408H14.6504C14.7821 10.3409 14.9115 10.3066 15.0273 10.2412C15.1432 10.1758 15.2419 10.0816 15.3145 9.9668L16.1494 8.64355L18.4863 12.3428C18.5827 12.4952 18.7246 12.6108 18.8896 12.6709C19.0548 12.731 19.2345 12.7325 19.4004 12.6748V12.6738C19.5762 12.611 19.7253 12.487 19.8252 12.3232L21.0771 10.3408H22.9004C23.01 10.3411 23.1183 10.3173 23.2188 10.2715C23.3192 10.2257 23.4098 10.1591 23.4844 10.0752C23.5589 9.99132 23.6157 9.89209 23.6523 9.78418C23.6889 9.67629 23.7044 9.56149 23.6973 9.44727V9.44629L23.6699 9.28809C23.6289 9.13454 23.5475 8.99467 23.4336 8.88574C23.2817 8.74055 23.0828 8.66057 22.877 8.66309H20.6504C20.5188 8.663 20.3892 8.6974 20.2734 8.7627C20.1576 8.82808 20.0589 8.92324 19.9863 9.03809L19.1504 10.3604L16.8145 6.66211C16.7181 6.5094 16.5764 6.39419 16.4111 6.33398C16.287 6.28883 16.1548 6.27652 16.0264 6.29785L15.8994 6.33008C15.7245 6.39314 15.5753 6.51675 15.4756 6.67969L14.2246 8.66309H10.1064C10.037 8.66329 9.96865 8.64048 9.91211 8.59668C9.85553 8.55285 9.81314 8.4906 9.79199 8.41895L9.71289 8.14062C9.53993 7.48866 9.45048 6.81469 9.44727 6.13672L9.45508 5.83496C9.5273 4.32971 10.1252 2.90221 11.1387 1.83203C12.1523 0.76181 13.5038 0.130745 14.9277 0.0546875L15.2129 0.046875C17.134 0.046875 18.8148 0.918663 19.8623 2.3916L19.9004 2.44531L19.9385 2.3916C20.986 0.918663 22.6667 0.046875 24.5879 0.046875Z" fill="black" stroke="#2B2B2B" stroke-width="0.09375"/>
</svg>
