<svg width="30" height="36" viewBox="0 0 30 36" fill="none" xmlns="http://www.w3.org/2000/svg">
<path d="M4.05216 27.44V28.184H1.69216V29.824H3.53216V30.568H1.69216V33H0.780157V27.44H4.05216ZM5.52134 28.008C5.35601 28.008 5.21734 27.952 5.10534 27.84C4.99334 27.728 4.93734 27.5893 4.93734 27.424C4.93734 27.2587 4.99334 27.12 5.10534 27.008C5.21734 26.896 5.35601 26.84 5.52134 26.84C5.68134 26.84 5.81734 26.896 5.92934 27.008C6.04134 27.12 6.09734 27.2587 6.09734 27.424C6.09734 27.5893 6.04134 27.728 5.92934 27.84C5.81734 27.952 5.68134 28.008 5.52134 28.008ZM5.96934 28.592V33H5.05734V28.592H5.96934ZM8.39072 29.336V31.776C8.39072 31.9413 8.42805 32.0613 8.50272 32.136C8.58272 32.2053 8.71605 32.24 8.90272 32.24H9.46272V33H8.74272C8.33205 33 8.01739 32.904 7.79872 32.712C7.58005 32.52 7.47072 32.208 7.47072 31.776V29.336H6.95072V28.592H7.47072V27.496H8.39072V28.592H9.46272V29.336H8.39072ZM12.2953 33.056C11.9219 33.056 11.5859 32.992 11.2873 32.864C10.9886 32.7307 10.7539 32.544 10.5833 32.304C10.4126 32.064 10.3273 31.784 10.3273 31.464H11.3033C11.3246 31.704 11.4179 31.9013 11.5833 32.056C11.7539 32.2107 11.9913 32.288 12.2953 32.288C12.6099 32.288 12.8553 32.2133 13.0313 32.064C13.2073 31.9093 13.2953 31.712 13.2953 31.472C13.2953 31.2853 13.2393 31.1333 13.1273 31.016C13.0206 30.8987 12.8846 30.808 12.7193 30.744C12.5593 30.68 12.3353 30.6107 12.0473 30.536C11.6846 30.44 11.3886 30.344 11.1593 30.248C10.9353 30.1467 10.7433 29.992 10.5833 29.784C10.4233 29.576 10.3433 29.2987 10.3433 28.952C10.3433 28.632 10.4233 28.352 10.5833 28.112C10.7433 27.872 10.9673 27.688 11.2553 27.56C11.5433 27.432 11.8766 27.368 12.2553 27.368C12.7939 27.368 13.2339 27.504 13.5753 27.776C13.9219 28.0427 14.1139 28.4107 14.1513 28.88H13.1433C13.1273 28.6773 13.0313 28.504 12.8553 28.36C12.6793 28.216 12.4473 28.144 12.1593 28.144C11.8979 28.144 11.6846 28.2107 11.5193 28.344C11.3539 28.4773 11.2713 28.6693 11.2713 28.92C11.2713 29.0907 11.3219 29.232 11.4233 29.344C11.5299 29.4507 11.6633 29.536 11.8233 29.6C11.9833 29.664 12.2019 29.7333 12.4793 29.808C12.8473 29.9093 13.1459 30.0107 13.3753 30.112C13.6099 30.2133 13.8073 30.3707 13.9673 30.584C14.1326 30.792 14.2153 31.072 14.2153 31.424C14.2153 31.7067 14.1379 31.9733 13.9833 32.224C13.8339 32.4747 13.6126 32.6773 13.3193 32.832C13.0313 32.9813 12.6899 33.056 12.2953 33.056ZM19.4194 28.592L16.7154 35.072H15.7714L16.6674 32.928L14.9314 28.592H15.9474L17.1874 31.952L18.4754 28.592H19.4194ZM22.4917 28.52C22.8383 28.52 23.1477 28.592 23.4197 28.736C23.697 28.88 23.913 29.0933 24.0677 29.376C24.2223 29.6587 24.2997 30 24.2997 30.4V33H23.3957V30.536C23.3957 30.1413 23.297 29.84 23.0997 29.632C22.9023 29.4187 22.633 29.312 22.2917 29.312C21.9503 29.312 21.6783 29.4187 21.4757 29.632C21.2783 29.84 21.1797 30.1413 21.1797 30.536V33H20.2677V28.592H21.1797V29.096C21.329 28.9147 21.5183 28.7733 21.7477 28.672C21.9823 28.5707 22.2303 28.52 22.4917 28.52ZM25.319 30.792C25.319 30.3387 25.4096 29.9413 25.591 29.6C25.7776 29.2533 26.0336 28.9867 26.359 28.8C26.6843 28.6133 27.0576 28.52 27.479 28.52C28.0123 28.52 28.4523 28.648 28.799 28.904C29.151 29.1547 29.3883 29.5147 29.511 29.984H28.527C28.447 29.7653 28.319 29.5947 28.143 29.472C27.967 29.3493 27.7456 29.288 27.479 29.288C27.1056 29.288 26.807 29.4213 26.583 29.688C26.3643 29.9493 26.255 30.3173 26.255 30.792C26.255 31.2667 26.3643 31.6373 26.583 31.904C26.807 32.1707 27.1056 32.304 27.479 32.304C28.007 32.304 28.3563 32.072 28.527 31.608H29.511C29.383 32.056 29.143 32.4133 28.791 32.68C28.439 32.9413 28.0016 33.072 27.479 33.072C27.0576 33.072 26.6843 32.9787 26.359 32.792C26.0336 32.6 25.7776 32.3333 25.591 31.992C25.4096 31.6453 25.319 31.2453 25.319 30.792Z" fill="#2B2B2B"/>
<path d="M13.0381 5.93945H16.6484C16.9808 5.93946 17.3095 6.00747 17.6123 6.13867C17.9151 6.26987 18.1858 6.4613 18.4053 6.7002L22.2637 10.8984L22.2773 10.9141H22.2812C22.4849 11.12 22.6103 11.384 22.6377 11.6641L22.6436 11.7871C22.6421 12.1182 22.5046 12.4365 22.2607 12.6719C22.0168 12.9073 21.6855 13.0416 21.3389 13.0449C20.9921 13.0483 20.658 12.9202 20.4092 12.6895L20.4062 12.6865L18.1973 10.9863L18.0869 10.9014L18.124 11.0361L19.7998 17.1699L19.8027 17.1777C19.9434 17.481 19.9541 17.8252 19.832 18.1357C19.7099 18.4463 19.4648 18.6989 19.1494 18.8379C18.8339 18.9769 18.4737 18.991 18.1475 18.877C17.8212 18.7629 17.5561 18.5297 17.4082 18.2295L17.4062 18.2256L14.8838 14.0518L14.8438 13.9863L14.8027 14.0518L12.2773 18.2197L12.2754 18.2236C12.1275 18.5239 11.8614 18.757 11.5352 18.8711C11.209 18.985 10.8486 18.971 10.5332 18.832C10.2179 18.693 9.97263 18.4404 9.85059 18.1299C9.72859 17.8194 9.73923 17.4751 9.87988 17.1719L9.83789 17.1523L9.88086 17.1719L9.88281 17.1641L11.5625 11.0361L11.5996 10.9014L11.4893 10.9863L9.28418 12.6865L9.3125 12.7236L9.2832 12.6865L9.28027 12.6895C9.03157 12.92 8.69804 13.0482 8.35156 13.0449C8.00499 13.0416 7.67358 12.9071 7.42969 12.6719C7.18582 12.4365 7.04836 12.1182 7.04688 11.7871C7.04546 11.4561 7.1802 11.1377 7.42188 10.9004L7.42285 10.8984L11.2822 6.7002C11.5017 6.46137 11.7715 6.26985 12.0742 6.13867C12.377 6.00747 12.7057 5.93946 13.0381 5.93945ZM13.9473 0.217773C14.3751 0.047776 14.8465 0.00311707 15.3008 0.0898438C15.755 0.176643 16.1719 0.391118 16.499 0.705078C16.8262 1.01905 17.0494 1.41861 17.1396 1.85352C17.2298 2.28845 17.1827 2.73957 17.0059 3.14941C16.8289 3.55933 16.5295 3.91035 16.1445 4.15723C15.7597 4.40404 15.307 4.53605 14.8438 4.53613C14.2223 4.53613 13.6264 4.29911 13.1875 3.87793C12.7488 3.45693 12.5031 2.8865 12.5029 2.29199C12.5029 1.84848 12.6395 1.41401 12.8965 1.04492C13.1535 0.675898 13.5194 0.387868 13.9473 0.217773Z" fill="black" stroke="#2B2B2B" stroke-width="0.09375"/>
</svg>
