<svg width="25" height="34" viewBox="0 0 25 34" fill="none" xmlns="http://www.w3.org/2000/svg">
<path d="M5.30391 26.44V32H4.39191V29.568H1.77591V32H0.863907V26.44H1.77591V28.824H4.39191V26.44H5.30391ZM8.57653 32.072C8.16053 32.072 7.78453 31.9787 7.44853 31.792C7.11253 31.6 6.84853 31.3333 6.65653 30.992C6.46453 30.6453 6.36853 30.2453 6.36853 29.792C6.36853 29.344 6.4672 28.9467 6.66453 28.6C6.86186 28.2533 7.1312 27.9867 7.47253 27.8C7.81386 27.6133 8.1952 27.52 8.61653 27.52C9.03786 27.52 9.4192 27.6133 9.76053 27.8C10.1019 27.9867 10.3712 28.2533 10.5685 28.6C10.7659 28.9467 10.8645 29.344 10.8645 29.792C10.8645 30.24 10.7632 30.6373 10.5605 30.984C10.3579 31.3307 10.0805 31.6 9.72853 31.792C9.38186 31.9787 8.99786 32.072 8.57653 32.072ZM8.57653 31.28C8.8112 31.28 9.02986 31.224 9.23253 31.112C9.44053 31 9.60853 30.832 9.73653 30.608C9.86453 30.384 9.92853 30.112 9.92853 29.792C9.92853 29.472 9.8672 29.2027 9.74453 28.984C9.62186 28.76 9.4592 28.592 9.25653 28.48C9.05386 28.368 8.8352 28.312 8.60053 28.312C8.36586 28.312 8.1472 28.368 7.94453 28.48C7.7472 28.592 7.58986 28.76 7.47253 28.984C7.3552 29.2027 7.29653 29.472 7.29653 29.792C7.29653 30.2667 7.41653 30.6347 7.65653 30.896C7.90186 31.152 8.20853 31.28 8.57653 31.28ZM17.2621 27.52C17.6088 27.52 17.9181 27.592 18.1901 27.736C18.4674 27.88 18.6834 28.0933 18.8381 28.376C18.9981 28.6587 19.0781 29 19.0781 29.4V32H18.1741V29.536C18.1741 29.1413 18.0754 28.84 17.8781 28.632C17.6808 28.4187 17.4114 28.312 17.0701 28.312C16.7288 28.312 16.4568 28.4187 16.2541 28.632C16.0568 28.84 15.9581 29.1413 15.9581 29.536V32H15.0541V29.536C15.0541 29.1413 14.9554 28.84 14.7581 28.632C14.5608 28.4187 14.2914 28.312 13.9501 28.312C13.6088 28.312 13.3368 28.4187 13.1341 28.632C12.9368 28.84 12.8381 29.1413 12.8381 29.536V32H11.9261V27.592H12.8381V28.096C12.9874 27.9147 13.1768 27.7733 13.4061 27.672C13.6354 27.5707 13.8808 27.52 14.1421 27.52C14.4941 27.52 14.8088 27.5947 15.0861 27.744C15.3634 27.8933 15.5768 28.1093 15.7261 28.392C15.8594 28.1253 16.0674 27.9147 16.3501 27.76C16.6328 27.6 16.9368 27.52 17.2621 27.52ZM24.4386 29.688C24.4386 29.8533 24.4279 30.0027 24.4066 30.136H21.0386C21.0653 30.488 21.1959 30.7707 21.4306 30.984C21.6653 31.1973 21.9533 31.304 22.2946 31.304C22.7853 31.304 23.1319 31.0987 23.3346 30.688H24.3186C24.1853 31.0933 23.9426 31.4267 23.5906 31.688C23.2439 31.944 22.8119 32.072 22.2946 32.072C21.8733 32.072 21.4946 31.9787 21.1586 31.792C20.8279 31.6 20.5666 31.3333 20.3746 30.992C20.1879 30.6453 20.0946 30.2453 20.0946 29.792C20.0946 29.3387 20.1853 28.9413 20.3666 28.6C20.5533 28.2533 20.8119 27.9867 21.1426 27.8C21.4786 27.6133 21.8626 27.52 22.2946 27.52C22.7106 27.52 23.0813 27.6107 23.4066 27.792C23.7319 27.9733 23.9853 28.2293 24.1666 28.56C24.3479 28.8853 24.4386 29.2613 24.4386 29.688ZM23.4866 29.4C23.4813 29.064 23.3613 28.7947 23.1266 28.592C22.8919 28.3893 22.6013 28.288 22.2546 28.288C21.9399 28.288 21.6706 28.3893 21.4466 28.592C21.2226 28.7893 21.0893 29.0587 21.0466 29.4H23.4866Z" fill="#2B2B2B"/>
<path d="M3.4641 8.04474L11.3808 0.44484C11.6777 0.160004 12.0802 0 12.5 0C12.9197 0 13.3223 0.160004 13.6192 0.44484L21.5359 8.04474C21.6836 8.18552 21.8007 8.35309 21.8804 8.5377C21.9601 8.72232 22.0007 8.9203 22 9.12013V18.24C22 18.4416 21.9166 18.6349 21.7681 18.7774C21.6196 18.9199 21.4183 19 21.2083 19H14.875C14.665 19 14.4637 18.9199 14.3152 18.7774C14.1667 18.6349 14.0833 18.4416 14.0833 18.24V12.9201H10.9167V18.24C10.9167 18.4416 10.8332 18.6349 10.6848 18.7774C10.5363 18.9199 10.335 19 10.125 19H3.79165C3.58169 19 3.38033 18.9199 3.23186 18.7774C3.08339 18.6349 2.99999 18.4416 2.99999 18.24V9.12013C2.99925 8.9203 3.0399 8.72232 3.11957 8.5377C3.19925 8.35309 3.31636 8.18552 3.4641 8.04474ZM4.58332 17.48H9.33332V12.1601C9.33332 11.9585 9.41673 11.7652 9.5652 11.6227C9.71366 11.4802 9.91503 11.4001 10.125 11.4001H14.875C15.085 11.4001 15.2863 11.4802 15.4348 11.6227C15.5832 11.7652 15.6667 11.9585 15.6667 12.1601V17.48H20.4167V9.12013L12.5 1.52023L4.58332 9.12013V17.48Z" fill="#2B2B2B"/>
</svg>
