<svg width="41" height="34" viewBox="0 0 41 34" fill="none" xmlns="http://www.w3.org/2000/svg">
<path d="M20.5088 1.50879C22.8848 1.51143 25.163 2.43123 26.8428 4.06641C28.4175 5.59948 29.3459 7.64419 29.458 9.79883L29.4697 10.2314C29.4696 11.9561 28.9443 13.642 27.96 15.0762C26.9755 16.5105 25.576 17.6287 23.9385 18.2891C22.301 18.9493 20.4991 19.1218 18.7607 18.7852C17.0225 18.4485 15.4259 17.6181 14.1729 16.3984C12.9198 15.1786 12.0664 13.6242 11.7207 11.9326C11.3751 10.2409 11.5524 8.48716 12.2305 6.89355C12.9085 5.30004 14.0568 3.93804 15.5303 2.97949C17.0038 2.021 18.7364 1.50887 20.5088 1.50879ZM20.5088 4.33789C20.2978 4.33799 20.0949 4.41983 19.9453 4.56543C19.7959 4.71103 19.712 4.90885 19.7119 5.11523V10.2305C19.7119 10.437 19.7958 10.6355 19.9453 10.7812C20.0949 10.9268 20.2978 11.0087 20.5088 11.0088H25.7637C25.9748 11.0088 26.1775 10.9269 26.3271 10.7812C26.4768 10.6355 26.5615 10.4371 26.5615 10.2305C26.5614 10.024 26.4767 9.82628 26.3271 9.68066C26.1775 9.535 25.9748 9.45315 25.7637 9.45312H21.3066V5.11523C21.3065 4.90874 21.2219 4.71106 21.0723 4.56543C20.9226 4.41985 20.7198 4.33789 20.5088 4.33789ZM13.7539 0.046875C13.9409 0.0469663 14.1201 0.119655 14.252 0.248047C14.3838 0.376462 14.458 0.550451 14.458 0.731445C14.4579 0.912414 14.3838 1.08648 14.252 1.21484L11.249 4.1377C11.1171 4.26602 10.938 4.33887 10.751 4.33887C10.5639 4.33885 10.3849 4.26604 10.2529 4.1377C10.121 4.00929 10.0469 3.83532 10.0469 3.6543C10.0469 3.47323 10.121 3.29933 10.2529 3.1709L13.2549 0.248047C13.3868 0.119574 13.5667 0.046875 13.7539 0.046875ZM27.2646 0.046875C27.4518 0.046875 27.6317 0.119574 27.7637 0.248047L30.7656 3.1709C30.8309 3.23445 30.8827 3.30972 30.918 3.39258C30.9533 3.47551 30.9717 3.56461 30.9717 3.6543C30.9717 3.74394 30.9532 3.83312 30.918 3.91602C30.8827 3.9988 30.8309 4.07419 30.7656 4.1377C30.7003 4.20125 30.6226 4.25166 30.5371 4.28613C30.4517 4.32057 30.3601 4.33884 30.2676 4.33887C30.1749 4.33887 30.0826 4.32062 29.9971 4.28613C29.9117 4.25165 29.8338 4.20121 29.7686 4.1377L26.7666 1.21484C26.6347 1.08648 26.5606 0.912414 26.5605 0.731445C26.5605 0.550412 26.6347 0.37647 26.7666 0.248047C26.8985 0.119617 27.0776 0.0469237 27.2646 0.046875Z" fill="black" stroke="#2B2B2B" stroke-width="0.09375"/>
<path d="M3.90847 32L2.62847 29.776H1.93247V32H1.02047V26.44H2.94047C3.36714 26.44 3.72714 26.5147 4.02047 26.664C4.31914 26.8133 4.54047 27.0133 4.68447 27.264C4.8338 27.5147 4.90847 27.7947 4.90847 28.104C4.90847 28.4667 4.8018 28.7973 4.58847 29.096C4.38047 29.3893 4.0578 29.5893 3.62047 29.696L4.99647 32H3.90847ZM1.93247 29.048H2.94047C3.2818 29.048 3.5378 28.9627 3.70847 28.792C3.88447 28.6213 3.97247 28.392 3.97247 28.104C3.97247 27.816 3.88714 27.592 3.71647 27.432C3.5458 27.2667 3.28714 27.184 2.94047 27.184H1.93247V29.048ZM10.2752 29.688C10.2752 29.8533 10.2645 30.0027 10.2432 30.136H6.87516C6.90182 30.488 7.03249 30.7707 7.26716 30.984C7.50182 31.1973 7.78982 31.304 8.13116 31.304C8.62182 31.304 8.96849 31.0987 9.17116 30.688H10.1552C10.0218 31.0933 9.77916 31.4267 9.42716 31.688C9.08049 31.944 8.64849 32.072 8.13116 32.072C7.70982 32.072 7.33116 31.9787 6.99516 31.792C6.66449 31.6 6.40316 31.3333 6.21116 30.992C6.02449 30.6453 5.93116 30.2453 5.93116 29.792C5.93116 29.3387 6.02182 28.9413 6.20316 28.6C6.38982 28.2533 6.64849 27.9867 6.97916 27.8C7.31516 27.6133 7.69916 27.52 8.13116 27.52C8.54716 27.52 8.91782 27.6107 9.24316 27.792C9.56849 27.9733 9.82182 28.2293 10.0032 28.56C10.1845 28.8853 10.2752 29.2613 10.2752 29.688ZM9.32316 29.4C9.31782 29.064 9.19782 28.7947 8.96316 28.592C8.72849 28.3893 8.43782 28.288 8.09116 28.288C7.77649 28.288 7.50716 28.3893 7.28316 28.592C7.05916 28.7893 6.92582 29.0587 6.88316 29.4H9.32316ZM16.6687 27.52C17.0153 27.52 17.3247 27.592 17.5967 27.736C17.874 27.88 18.09 28.0933 18.2447 28.376C18.4047 28.6587 18.4847 29 18.4847 29.4V32H17.5807V29.536C17.5807 29.1413 17.482 28.84 17.2847 28.632C17.0873 28.4187 16.818 28.312 16.4767 28.312C16.1353 28.312 15.8633 28.4187 15.6607 28.632C15.4633 28.84 15.3647 29.1413 15.3647 29.536V32H14.4607V29.536C14.4607 29.1413 14.362 28.84 14.1647 28.632C13.9673 28.4187 13.698 28.312 13.3567 28.312C13.0153 28.312 12.7433 28.4187 12.5407 28.632C12.3433 28.84 12.2447 29.1413 12.2447 29.536V32H11.3327V27.592H12.2447V28.096C12.394 27.9147 12.5833 27.7733 12.8127 27.672C13.042 27.5707 13.2873 27.52 13.5487 27.52C13.9007 27.52 14.2153 27.5947 14.4927 27.744C14.77 27.8933 14.9833 28.1093 15.1327 28.392C15.266 28.1253 15.474 27.9147 15.7567 27.76C16.0393 27.6 16.3433 27.52 16.6687 27.52ZM20.2692 27.008C20.1038 27.008 19.9652 26.952 19.8532 26.84C19.7412 26.728 19.6852 26.5893 19.6852 26.424C19.6852 26.2587 19.7412 26.12 19.8532 26.008C19.9652 25.896 20.1038 25.84 20.2692 25.84C20.4292 25.84 20.5652 25.896 20.6772 26.008C20.7892 26.12 20.8452 26.2587 20.8452 26.424C20.8452 26.5893 20.7892 26.728 20.6772 26.84C20.5652 26.952 20.4292 27.008 20.2692 27.008ZM20.7172 27.592V32H19.8052V27.592H20.7172ZM24.2985 27.52C24.6452 27.52 24.9545 27.592 25.2265 27.736C25.5039 27.88 25.7199 28.0933 25.8745 28.376C26.0292 28.6587 26.1065 29 26.1065 29.4V32H25.2025V29.536C25.2025 29.1413 25.1039 28.84 24.9065 28.632C24.7092 28.4187 24.4399 28.312 24.0985 28.312C23.7572 28.312 23.4852 28.4187 23.2825 28.632C23.0852 28.84 22.9865 29.1413 22.9865 29.536V32H22.0745V27.592H22.9865V28.096C23.1359 27.9147 23.3252 27.7733 23.5545 27.672C23.7892 27.5707 24.0372 27.52 24.2985 27.52ZM27.1258 29.776C27.1258 29.3333 27.2165 28.9413 27.3978 28.6C27.5845 28.2587 27.8352 27.9947 28.1498 27.808C28.4698 27.616 28.8245 27.52 29.2138 27.52C29.5018 27.52 29.7845 27.584 30.0618 27.712C30.3445 27.8347 30.5685 28 30.7338 28.208V26.08H31.6538V32H30.7338V31.336C30.5845 31.5493 30.3765 31.7253 30.1098 31.864C29.8485 32.0027 29.5472 32.072 29.2058 32.072C28.8218 32.072 28.4698 31.976 28.1498 31.784C27.8352 31.5867 27.5845 31.3147 27.3978 30.968C27.2165 30.616 27.1258 30.2187 27.1258 29.776ZM30.7338 29.792C30.7338 29.488 30.6698 29.224 30.5418 29C30.4192 28.776 30.2565 28.6053 30.0538 28.488C29.8512 28.3707 29.6325 28.312 29.3978 28.312C29.1632 28.312 28.9445 28.3707 28.7418 28.488C28.5392 28.6 28.3738 28.768 28.2458 28.992C28.1232 29.2107 28.0618 29.472 28.0618 29.776C28.0618 30.08 28.1232 30.3467 28.2458 30.576C28.3738 30.8053 28.5392 30.9813 28.7418 31.104C28.9498 31.2213 29.1685 31.28 29.3978 31.28C29.6325 31.28 29.8512 31.2213 30.0538 31.104C30.2565 30.9867 30.4192 30.816 30.5418 30.592C30.6698 30.3627 30.7338 30.096 30.7338 29.792ZM37.0517 29.688C37.0517 29.8533 37.0411 30.0027 37.0197 30.136H33.6517C33.6784 30.488 33.8091 30.7707 34.0437 30.984C34.2784 31.1973 34.5664 31.304 34.9077 31.304C35.3984 31.304 35.7451 31.0987 35.9477 30.688H36.9317C36.7984 31.0933 36.5557 31.4267 36.2037 31.688C35.8571 31.944 35.4251 32.072 34.9077 32.072C34.4864 32.072 34.1077 31.9787 33.7717 31.792C33.4411 31.6 33.1797 31.3333 32.9877 30.992C32.8011 30.6453 32.7077 30.2453 32.7077 29.792C32.7077 29.3387 32.7984 28.9413 32.9797 28.6C33.1664 28.2533 33.4251 27.9867 33.7557 27.8C34.0917 27.6133 34.4757 27.52 34.9077 27.52C35.3237 27.52 35.6944 27.6107 36.0197 27.792C36.3451 27.9733 36.5984 28.2293 36.7797 28.56C36.9611 28.8853 37.0517 29.2613 37.0517 29.688ZM36.0997 29.4C36.0944 29.064 35.9744 28.7947 35.7397 28.592C35.5051 28.3893 35.2144 28.288 34.8677 28.288C34.5531 28.288 34.2837 28.3893 34.0597 28.592C33.8357 28.7893 33.7024 29.0587 33.6597 29.4H36.0997ZM39.0212 28.232C39.1545 28.008 39.3305 27.8347 39.5492 27.712C39.7732 27.584 40.0372 27.52 40.3412 27.52V28.464H40.1092C39.7519 28.464 39.4799 28.5547 39.2932 28.736C39.1119 28.9173 39.0212 29.232 39.0212 29.68V32H38.1092V27.592H39.0212V28.232Z" fill="#2B2B2B"/>
</svg>
