<svg width="25" height="34" viewBox="0 0 25 34" fill="none" xmlns="http://www.w3.org/2000/svg">
<path d="M5.30391 26.44V32H4.39191V29.568H1.77591V32H0.863907V26.44H1.77591V28.824H4.39191V26.44H5.30391ZM8.57653 32.072C8.16053 32.072 7.78453 31.9787 7.44853 31.792C7.11253 31.6 6.84853 31.3333 6.65653 30.992C6.46453 30.6453 6.36853 30.2453 6.36853 29.792C6.36853 29.344 6.4672 28.9467 6.66453 28.6C6.86186 28.2533 7.1312 27.9867 7.47253 27.8C7.81386 27.6133 8.1952 27.52 8.61653 27.52C9.03786 27.52 9.4192 27.6133 9.76053 27.8C10.1019 27.9867 10.3712 28.2533 10.5685 28.6C10.7659 28.9467 10.8645 29.344 10.8645 29.792C10.8645 30.24 10.7632 30.6373 10.5605 30.984C10.3579 31.3307 10.0805 31.6 9.72853 31.792C9.38186 31.9787 8.99786 32.072 8.57653 32.072ZM8.57653 31.28C8.8112 31.28 9.02986 31.224 9.23253 31.112C9.44053 31 9.60853 30.832 9.73653 30.608C9.86453 30.384 9.92853 30.112 9.92853 29.792C9.92853 29.472 9.8672 29.2027 9.74453 28.984C9.62186 28.76 9.4592 28.592 9.25653 28.48C9.05386 28.368 8.8352 28.312 8.60053 28.312C8.36586 28.312 8.1472 28.368 7.94453 28.48C7.7472 28.592 7.58986 28.76 7.47253 28.984C7.3552 29.2027 7.29653 29.472 7.29653 29.792C7.29653 30.2667 7.41653 30.6347 7.65653 30.896C7.90186 31.152 8.20853 31.28 8.57653 31.28ZM17.2621 27.52C17.6088 27.52 17.9181 27.592 18.1901 27.736C18.4674 27.88 18.6834 28.0933 18.8381 28.376C18.9981 28.6587 19.0781 29 19.0781 29.4V32H18.1741V29.536C18.1741 29.1413 18.0754 28.84 17.8781 28.632C17.6808 28.4187 17.4114 28.312 17.0701 28.312C16.7288 28.312 16.4568 28.4187 16.2541 28.632C16.0568 28.84 15.9581 29.1413 15.9581 29.536V32H15.0541V29.536C15.0541 29.1413 14.9554 28.84 14.7581 28.632C14.5608 28.4187 14.2914 28.312 13.9501 28.312C13.6088 28.312 13.3368 28.4187 13.1341 28.632C12.9368 28.84 12.8381 29.1413 12.8381 29.536V32H11.9261V27.592H12.8381V28.096C12.9874 27.9147 13.1768 27.7733 13.4061 27.672C13.6354 27.5707 13.8808 27.52 14.1421 27.52C14.4941 27.52 14.8088 27.5947 15.0861 27.744C15.3634 27.8933 15.5768 28.1093 15.7261 28.392C15.8594 28.1253 16.0674 27.9147 16.3501 27.76C16.6328 27.6 16.9368 27.52 17.2621 27.52ZM24.4386 29.688C24.4386 29.8533 24.4279 30.0027 24.4066 30.136H21.0386C21.0653 30.488 21.1959 30.7707 21.4306 30.984C21.6653 31.1973 21.9533 31.304 22.2946 31.304C22.7853 31.304 23.1319 31.0987 23.3346 30.688H24.3186C24.1853 31.0933 23.9426 31.4267 23.5906 31.688C23.2439 31.944 22.8119 32.072 22.2946 32.072C21.8733 32.072 21.4946 31.9787 21.1586 31.792C20.8279 31.6 20.5666 31.3333 20.3746 30.992C20.1879 30.6453 20.0946 30.2453 20.0946 29.792C20.0946 29.3387 20.1853 28.9413 20.3666 28.6C20.5533 28.2533 20.8119 27.9867 21.1426 27.8C21.4786 27.6133 21.8626 27.52 22.2946 27.52C22.7106 27.52 23.0813 27.6107 23.4066 27.792C23.7319 27.9733 23.9853 28.2293 24.1666 28.56C24.3479 28.8853 24.4386 29.2613 24.4386 29.688ZM23.4866 29.4C23.4813 29.064 23.3613 28.7947 23.1266 28.592C22.8919 28.3893 22.6013 28.288 22.2546 28.288C21.9399 28.288 21.6706 28.3893 21.4466 28.592C21.2226 28.7893 21.0893 29.0587 21.0466 29.4H23.4866Z" fill="#2B2B2B"/>
<path d="M12.5 0.046875C12.9079 0.046875 13.2989 0.202231 13.5869 0.478516L21.5039 8.0791C21.7917 8.35537 21.9529 8.73025 21.9531 9.12012V18.2402C21.9531 18.4286 21.8747 18.6093 21.7354 18.7432C21.5958 18.8771 21.4061 18.9531 21.208 18.9531H15.667C15.4689 18.9531 15.2792 18.8771 15.1396 18.7432C15.0003 18.6093 14.9219 18.4286 14.9219 18.2402V13.2998C14.9219 13.186 14.8751 13.077 14.792 12.9971C14.7089 12.9173 14.5962 12.8731 14.4795 12.873H10.5205C10.4038 12.8731 10.2911 12.9173 10.208 12.9971C10.1249 13.077 10.0781 13.186 10.0781 13.2998V18.2402C10.0781 18.4286 9.99974 18.6093 9.86035 18.7432C9.72081 18.8771 9.53114 18.9531 9.33301 18.9531H3.79199C3.59386 18.9531 3.40419 18.8771 3.26465 18.7432C3.12526 18.6093 3.04695 18.4286 3.04688 18.2402V9.12012L3.05469 8.97461C3.08959 8.63793 3.24422 8.32089 3.49609 8.0791L11.4131 0.478516C11.7011 0.202231 12.0921 0.0468751 12.5 0.046875Z" fill="#2B2B2B" stroke="#2B2B2B" stroke-width="0.09375"/>
</svg>
