<svg width="102" height="102" viewBox="0 0 102 102" fill="none" xmlns="http://www.w3.org/2000/svg">
<g filter="url(#filter0_d_253_3294)">
<circle cx="48.5" cy="48.5" r="22.5" fill="#2B2B2B"/>
<path d="M57.0489 49.4864L50.8614 55.6739C50.7324 55.8029 50.5574 55.8754 50.375 55.8754C50.1926 55.8754 50.0176 55.8029 49.8886 55.6739C49.7596 55.5449 49.6871 55.37 49.6871 55.1875C49.6871 55.0051 49.7596 54.8301 49.8886 54.7011L54.903 49.6875H41.4375C41.2552 49.6875 41.0803 49.6151 40.9514 49.4862C40.8224 49.3572 40.75 49.1824 40.75 49C40.75 48.8177 40.8224 48.6428 40.9514 48.5139C41.0803 48.3849 41.2552 48.3125 41.4375 48.3125H54.903L49.8886 43.2989C49.7596 43.1699 49.6871 42.995 49.6871 42.8125C49.6871 42.6301 49.7596 42.4551 49.8886 42.3261C50.0176 42.1971 50.1926 42.1246 50.375 42.1246C50.5574 42.1246 50.7324 42.1971 50.8614 42.3261L57.0489 48.5136C57.1128 48.5775 57.1635 48.6533 57.1981 48.7367C57.2327 48.8202 57.2505 48.9097 57.2505 49C57.2505 49.0904 57.2327 49.1798 57.1981 49.2633C57.1635 49.3467 57.1128 49.4226 57.0489 49.4864Z" fill="white"/>
</g>
<defs>
<filter id="filter0_d_253_3294" x="0.125" y="0.125" width="101.25" height="101.25" filterUnits="userSpaceOnUse" color-interpolation-filters="sRGB">
<feFlood flood-opacity="0" result="BackgroundImageFix"/>
<feColorMatrix in="SourceAlpha" type="matrix" values="0 0 0 0 0 0 0 0 0 0 0 0 0 0 0 0 0 0 127 0" result="hardAlpha"/>
<feOffset dx="2.25" dy="2.25"/>
<feGaussianBlur stdDeviation="14.0625"/>
<feComposite in2="hardAlpha" operator="out"/>
<feColorMatrix type="matrix" values="0 0 0 0 0 0 0 0 0 0 0 0 0 0 0 0 0 0 0.15 0"/>
<feBlend mode="normal" in2="BackgroundImageFix" result="effect1_dropShadow_253_3294"/>
<feBlend mode="normal" in="SourceGraphic" in2="effect1_dropShadow_253_3294" result="shape"/>
</filter>
</defs>
</svg>
